<?xml version="1.0" standalone="no"?>
<!DOCTYPE svg PUBLIC "-//W3C//DTD SVG 20010904//EN"
 "http://www.w3.org/TR/2001/REC-SVG-20010904/DTD/svg10.dtd">
<svg version="1.0" xmlns="http://www.w3.org/2000/svg"
 width="1920.000000pt" height="1920.000000pt" viewBox="0 0 1920.000000 1920.000000"
 preserveAspectRatio="xMidYMid meet">

<g transform="translate(0.000000,1920.000000) scale(0.100000,-0.100000)"
fill="#000000" stroke="none">
<path d="M9417 17439 c-10 -6 -129 -14 -265 -19 -242 -9 -392 -20 -542 -41
-41 -5 -122 -14 -180 -19 -58 -4 -118 -13 -133 -19 -16 -6 -49 -11 -75 -11
-26 0 -65 -7 -87 -15 -22 -8 -59 -14 -82 -15 -62 0 -165 -30 -185 -53 -10 -11
-18 -32 -18 -46 0 -14 0 -263 0 -554 0 -290 -2 -538 -6 -552 -7 -27 -77 -65
-119 -65 -12 0 -39 -7 -58 -15 -20 -8 -50 -15 -66 -15 -16 0 -32 -4 -35 -9 -3
-5 -27 -12 -53 -16 -27 -4 -52 -10 -58 -15 -5 -4 -26 -10 -45 -13 -39 -5 -90
-22 -133 -43 -16 -8 -37 -14 -47 -14 -10 0 -31 -6 -47 -14 -15 -8 -55 -22 -88
-32 -33 -10 -64 -21 -70 -25 -5 -4 -27 -10 -48 -14 -20 -4 -40 -11 -43 -16 -3
-5 -14 -9 -24 -9 -11 0 -36 -7 -57 -16 -46 -20 -92 -39 -135 -58 -18 -8 -44
-19 -58 -24 -70 -30 -128 -54 -150 -64 -14 -6 -41 -18 -60 -26 -19 -8 -47 -21
-62 -29 -14 -7 -33 -13 -41 -13 -8 0 -20 -7 -27 -15 -7 -8 -21 -15 -30 -15
-10 0 -20 -3 -22 -7 -1 -5 -50 -32 -108 -61 -58 -30 -134 -69 -169 -88 -35
-19 -69 -34 -75 -34 -6 0 -27 15 -46 33 -19 18 -62 57 -95 87 -33 29 -98 90
-146 134 -47 45 -132 124 -190 176 -116 105 -207 191 -313 293 -83 79 -124
101 -168 92 -17 -4 -36 -11 -42 -17 -23 -19 -149 -98 -157 -98 -5 0 -9 -3 -9
-8 0 -4 -17 -16 -37 -27 -20 -11 -41 -24 -47 -30 -6 -5 -45 -32 -86 -60 -41
-27 -77 -53 -80 -56 -3 -3 -30 -23 -60 -44 -30 -21 -57 -41 -60 -45 -3 -4 -23
-19 -46 -33 -22 -14 -47 -31 -55 -39 -8 -7 -43 -36 -79 -63 -36 -27 -69 -54
-75 -60 -5 -7 -30 -27 -55 -46 -70 -53 -223 -182 -271 -229 -14 -14 -62 -56
-105 -95 -135 -120 -326 -306 -469 -457 -148 -156 -191 -203 -254 -278 -35
-41 -86 -102 -115 -134 -28 -33 -66 -80 -85 -105 -19 -25 -38 -48 -41 -51 -20
-15 -177 -240 -186 -265 -20 -58 -8 -73 305 -360 30 -27 73 -68 96 -90 38 -36
103 -96 289 -265 146 -133 205 -200 178 -200 -5 0 -14 -10 -20 -22 -13 -26
-45 -80 -118 -199 -75 -122 -93 -152 -100 -169 -3 -8 -10 -22 -15 -30 -5 -8
-12 -22 -15 -30 -17 -43 -70 -145 -76 -148 -5 -2 -8 -12 -8 -22 0 -9 -7 -23
-15 -30 -8 -7 -15 -20 -15 -30 0 -10 -7 -23 -15 -30 -8 -7 -15 -17 -15 -23 0
-6 -14 -40 -31 -76 -32 -70 -36 -79 -64 -151 -9 -25 -23 -58 -31 -73 -8 -16
-14 -35 -14 -42 0 -7 -6 -26 -14 -42 -33 -66 -70 -159 -92 -233 -8 -30 -20
-64 -24 -75 -5 -11 -11 -31 -13 -45 -3 -14 -10 -41 -17 -60 -27 -80 -32 -96
-37 -120 -3 -14 -13 -44 -24 -67 l-19 -43 -626 0 -626 0 -26 -28 c-26 -28 -39
-76 -62 -229 -5 -35 -14 -72 -20 -82 -5 -11 -10 -37 -10 -58 0 -21 -7 -63 -15
-93 -8 -30 -15 -77 -15 -105 0 -27 -7 -77 -15 -110 -8 -33 -15 -85 -15 -116 0
-30 -4 -80 -10 -110 -5 -30 -14 -161 -19 -293 -6 -144 -14 -243 -20 -249 -15
-15 -15 -299 0 -314 6 -6 14 -105 20 -249 5 -132 14 -263 19 -293 6 -30 10
-80 10 -110 0 -31 7 -83 15 -116 8 -33 15 -82 15 -110 0 -27 7 -75 15 -105 8
-30 15 -72 15 -93 0 -21 5 -47 10 -58 6 -10 15 -47 20 -82 21 -136 36 -197 58
-226 l23 -31 629 0 630 0 19 -42 c11 -24 21 -54 24 -68 3 -14 10 -40 16 -58 6
-17 16 -47 22 -65 6 -17 13 -43 16 -57 2 -14 8 -34 13 -45 4 -11 16 -45 24
-75 22 -74 59 -167 92 -233 8 -16 14 -35 14 -42 0 -7 6 -26 14 -42 8 -15 22
-48 31 -73 28 -72 32 -81 64 -151 17 -36 31 -70 31 -76 0 -6 7 -16 15 -23 8
-7 15 -20 15 -30 0 -10 7 -23 15 -30 8 -7 15 -21 15 -30 0 -10 3 -20 8 -22 4
-2 22 -34 40 -73 19 -38 38 -77 43 -85 5 -8 11 -21 14 -27 3 -7 7 -19 10 -25
6 -15 27 -50 99 -167 73 -119 105 -173 118 -198 6 -13 15 -23 20 -23 27 0 -32
-67 -178 -200 -186 -169 -251 -229 -289 -265 -23 -22 -66 -62 -96 -90 -313
-287 -330 -308 -307 -363 11 -25 172 -250 188 -262 3 -3 22 -26 41 -51 19 -25
57 -72 85 -105 29 -32 80 -93 115 -134 170 -201 502 -539 723 -735 43 -38 91
-81 105 -95 48 -47 201 -176 271 -229 25 -19 50 -39 55 -46 6 -6 39 -33 75
-60 36 -27 71 -56 79 -63 8 -8 33 -25 55 -39 23 -14 43 -29 46 -33 3 -4 30
-24 60 -45 30 -21 57 -41 60 -44 3 -3 39 -28 80 -56 41 -27 80 -54 86 -60 6
-5 27 -19 47 -30 20 -11 37 -23 37 -27 0 -5 4 -8 9 -8 8 0 134 -79 157 -98 6
-6 28 -13 50 -16 46 -8 78 11 175 105 78 77 178 169 298 279 58 52 143 131
190 176 48 44 113 105 146 134 33 30 76 69 95 87 19 18 40 33 46 33 6 0 40
-15 75 -34 35 -19 111 -58 169 -88 58 -29 107 -56 108 -60 2 -5 12 -8 22 -8 9
0 23 -7 30 -15 7 -8 19 -15 27 -15 8 0 27 -6 41 -13 15 -8 43 -21 62 -29 19
-8 46 -20 60 -26 22 -10 80 -34 150 -64 14 -5 40 -16 58 -24 43 -19 89 -38
135 -58 21 -9 46 -16 57 -16 10 0 21 -4 24 -9 3 -5 23 -12 43 -16 21 -4 43
-10 48 -14 6 -4 37 -15 70 -25 33 -10 73 -24 88 -32 16 -8 37 -14 47 -14 10 0
31 -6 47 -14 43 -21 94 -38 133 -43 19 -3 40 -9 45 -13 6 -5 31 -11 58 -15 26
-4 50 -11 53 -16 3 -5 19 -9 35 -9 16 0 46 -7 66 -15 19 -8 46 -15 58 -15 42
0 112 -38 119 -65 4 -14 6 -273 6 -576 -1 -469 1 -554 14 -573 16 -25 120 -56
191 -56 22 -1 58 -7 80 -15 22 -8 61 -15 87 -15 26 0 59 -5 75 -11 15 -6 75
-15 133 -19 58 -5 139 -14 180 -19 150 -21 300 -32 542 -41 137 -5 256 -13
267 -19 26 -15 336 -15 362 0 11 6 130 14 267 19 242 9 392 20 542 41 41 5
122 14 180 19 58 4 118 13 133 19 16 6 49 11 75 11 26 0 65 7 87 15 22 8 59
14 82 15 62 0 165 30 185 53 10 11 18 32 18 46 0 14 0 263 0 554 0 290 2 538
6 552 7 27 77 65 119 65 12 0 39 7 58 15 20 8 50 15 66 15 16 0 32 4 35 9 3 5
27 12 53 16 27 4 53 10 58 15 6 4 26 10 45 13 39 5 90 22 133 43 16 8 37 14
47 14 10 0 31 6 47 14 15 8 55 22 88 32 33 10 65 21 70 25 6 4 27 10 48 14 20
4 40 11 43 16 3 5 14 9 24 9 11 0 36 7 57 16 46 20 92 39 136 58 17 8 43 19
57 24 70 30 128 54 150 64 14 6 41 18 60 26 19 8 47 21 62 29 14 7 33 13 41
13 8 0 20 7 27 15 7 8 21 15 30 15 10 0 20 3 22 8 2 4 50 31 108 60 58 30 134
69 169 88 35 19 69 34 75 34 6 0 27 -15 46 -33 19 -18 62 -57 95 -87 33 -29
98 -90 146 -134 47 -45 132 -124 190 -176 116 -105 207 -191 313 -293 83 -79
124 -101 168 -92 17 4 36 11 42 17 23 19 149 98 157 98 5 0 9 3 9 8 0 4 17 16
37 27 20 11 41 25 47 30 6 6 45 33 86 60 41 28 77 53 80 56 3 3 30 23 60 44
30 21 57 41 60 45 3 4 23 19 46 33 22 14 47 31 55 39 8 7 43 36 79 63 36 27
70 54 75 60 6 7 30 27 55 46 70 53 223 182 271 229 14 14 62 57 105 95 135
120 326 306 469 457 148 156 191 203 254 278 35 41 86 102 115 134 28 33 66
80 85 105 19 25 38 48 41 51 20 15 177 240 186 265 20 58 8 73 -305 360 -30
28 -73 68 -96 90 -38 36 -103 96 -289 265 -146 133 -205 200 -178 200 5 0 14
10 20 23 13 25 45 79 118 198 75 122 93 152 100 169 3 8 10 22 15 30 5 8 12
22 15 30 17 43 70 145 77 148 4 2 7 12 7 22 0 9 7 23 15 30 8 7 15 20 15 30 0
10 7 23 15 30 8 7 15 17 15 23 0 6 14 40 31 76 32 70 36 79 64 151 9 25 23 58
31 73 8 16 14 35 14 42 0 7 6 26 14 42 33 66 70 159 92 233 8 30 20 64 24 75
5 11 11 31 13 45 3 14 10 40 16 58 6 17 16 47 22 65 6 17 13 43 16 57 3 14 13
44 24 67 l19 43 626 0 626 0 26 28 c26 28 39 76 62 229 5 35 14 72 20 82 5 11
10 37 10 58 0 21 7 63 15 93 8 30 15 78 15 105 0 28 7 77 15 110 8 33 15 85
15 116 0 30 4 80 10 110 5 30 14 161 19 293 6 144 14 243 20 249 15 15 15 299
0 314 -6 6 -14 105 -20 249 -5 132 -14 263 -19 293 -6 30 -10 80 -10 110 0 31
-7 83 -15 116 -8 33 -15 83 -15 110 0 28 -7 75 -15 105 -8 30 -15 72 -15 93 0
21 -5 47 -10 58 -6 10 -15 47 -20 82 -21 136 -36 197 -58 226 l-23 31 -629 0
-630 0 -19 43 c-11 23 -21 53 -24 67 -3 14 -10 40 -16 58 -6 17 -16 47 -22 65
-6 17 -13 43 -16 57 -2 14 -8 34 -13 45 -4 11 -16 45 -24 75 -22 74 -59 167
-92 233 -8 16 -14 35 -14 42 0 7 -6 26 -14 42 -8 15 -22 48 -31 73 -28 72 -32
81 -64 151 -17 36 -31 70 -31 76 0 6 -7 16 -15 23 -8 7 -15 20 -15 30 0 10 -7
23 -15 30 -8 7 -15 21 -15 30 0 10 -3 20 -7 22 -5 2 -23 35 -41 73 -19 39 -38
77 -43 85 -5 8 -11 21 -14 28 -3 6 -7 18 -10 25 -6 14 -27 49 -99 166 -73 119
-105 173 -118 199 -6 12 -15 22 -20 22 -27 0 32 67 178 200 186 169 251 229
289 265 23 22 66 63 96 90 313 287 330 308 307 363 -11 25 -172 250 -188 262
-3 3 -22 26 -41 51 -19 25 -57 72 -85 105 -29 32 -80 93 -115 134 -170 201
-502 539 -723 735 -43 39 -91 81 -105 95 -48 47 -201 176 -271 229 -25 19 -49
39 -55 46 -5 6 -39 33 -75 60 -36 27 -71 56 -79 63 -8 8 -33 25 -55 39 -23 14
-43 29 -46 33 -3 4 -30 24 -60 45 -30 21 -57 41 -60 44 -3 3 -39 29 -80 56
-41 28 -80 55 -86 60 -6 6 -27 19 -47 30 -20 11 -37 23 -37 27 0 5 -4 8 -9 8
-8 0 -134 79 -157 98 -6 6 -28 13 -50 16 -46 8 -78 -11 -175 -105 -78 -77
-178 -169 -298 -279 -58 -52 -143 -131 -190 -176 -48 -44 -113 -105 -146 -134
-33 -30 -76 -69 -95 -87 -19 -18 -40 -33 -46 -33 -6 0 -40 15 -75 34 -35 19
-111 58 -169 88 -58 29 -106 56 -108 61 -2 4 -12 7 -22 7 -9 0 -23 7 -30 15
-7 8 -19 15 -27 15 -8 0 -27 6 -41 13 -15 8 -43 21 -62 29 -19 8 -46 20 -60
26 -22 10 -80 34 -150 64 -14 5 -40 16 -57 24 -44 19 -90 38 -136 58 -21 9
-46 16 -57 16 -10 0 -21 4 -24 9 -3 5 -23 12 -43 16 -21 4 -42 10 -48 14 -5 4
-37 15 -70 25 -33 10 -73 24 -88 32 -16 8 -37 14 -47 14 -10 0 -31 6 -47 14
-43 21 -94 38 -133 43 -19 3 -39 9 -45 13 -5 5 -31 11 -58 15 -26 4 -50 11
-53 16 -3 5 -19 9 -35 9 -16 0 -46 7 -66 15 -19 8 -46 15 -58 15 -42 0 -112
38 -119 65 -4 14 -6 273 -6 576 1 469 -1 554 -14 573 -16 25 -120 56 -191 56
-22 1 -58 7 -80 15 -22 8 -61 15 -87 15 -26 0 -59 5 -75 11 -15 6 -75 15 -133
19 -58 5 -139 14 -180 19 -150 21 -300 32 -542 41 -137 5 -256 13 -267 19 -26
14 -340 14 -364 0z m1172 -3092 c19 -9 53 -17 77 -17 23 0 55 -5 70 -10 25
-10 26 -9 13 6 -13 16 -12 17 11 11 14 -4 45 -10 70 -13 25 -4 52 -12 60 -19
17 -14 91 -25 84 -13 -3 4 0 8 5 8 6 0 11 -3 11 -8 0 -15 61 -33 92 -28 22 4
27 3 14 -2 -19 -8 -19 -9 2 -14 12 -4 22 -2 22 3 0 5 7 9 15 9 8 0 15 -5 15
-11 0 -6 7 -9 15 -5 8 3 23 2 32 -1 15 -6 14 -7 -3 -13 -14 -6 -8 -10 26 -17
25 -5 46 -6 48 -1 2 4 13 -1 25 -12 11 -11 31 -20 43 -20 13 0 26 -5 30 -11 4
-8 9 -7 15 2 6 10 13 10 35 1 14 -7 24 -15 21 -19 -4 -3 -15 0 -24 8 -17 12
-17 12 -1 -5 9 -11 31 -19 50 -20 18 -1 41 -9 50 -20 10 -10 24 -16 33 -12 9
3 14 2 11 -3 -3 -5 1 -11 9 -15 8 -3 15 0 16 7 0 7 5 2 11 -10 6 -12 23 -24
42 -27 18 -4 48 -17 66 -31 21 -15 36 -21 40 -15 4 6 11 0 17 -13 12 -26 53
-43 54 -24 0 7 4 2 9 -11 6 -14 21 -25 40 -29 17 -3 28 -8 26 -11 -8 -7 69
-60 99 -68 14 -3 28 -11 32 -17 3 -6 1 -7 -5 -3 -7 4 -12 2 -12 -3 0 -6 5 -11
12 -11 7 0 26 -12 42 -27 25 -23 27 -24 11 -4 l-20 24 23 -14 c12 -8 25 -21
27 -31 3 -9 13 -22 22 -30 15 -11 16 -11 10 7 -6 19 -6 19 6 1 17 -26 114
-126 122 -126 4 0 2 7 -5 15 -30 36 1 10 60 -52 36 -37 57 -61 48 -54 -28 21
-21 9 17 -33 19 -21 35 -35 35 -31 0 5 9 0 20 -10 11 -10 20 -26 20 -37 0 -10
18 -36 39 -57 22 -22 32 -38 23 -35 -13 5 -12 1 4 -13 12 -10 24 -26 27 -36 4
-9 17 -22 29 -27 13 -5 18 -9 11 -9 -8 -1 -8 -7 0 -25 7 -14 14 -20 18 -15 3
5 11 -9 18 -31 6 -22 16 -38 22 -35 5 4 9 3 7 -2 -3 -14 32 -88 49 -100 10 -8
12 -13 5 -13 -10 0 -10 -5 -2 -20 6 -11 15 -18 21 -15 5 4 9 3 8 -2 -3 -20 2
-34 11 -28 6 3 10 1 10 -4 0 -6 -5 -11 -10 -11 -6 0 1 -21 15 -47 14 -27 25
-54 25 -61 0 -7 5 -10 10 -7 6 4 10 3 9 -2 -3 -17 14 -73 21 -68 4 2 5 -7 2
-22 -3 -15 -1 -23 4 -20 6 3 11 -4 11 -15 1 -12 8 -25 15 -29 8 -5 9 -9 2 -9
-15 0 5 -87 29 -123 9 -15 14 -27 9 -27 -4 0 -3 -32 2 -72 8 -55 12 -66 17
-48 6 20 7 16 8 -17 1 -23 6 -45 12 -49 6 -3 7 -10 2 -15 -5 -5 -6 -41 -2 -81
4 -40 8 -108 8 -150 1 -42 6 -80 11 -83 13 -8 13 -189 1 -213 -14 -25 -28
-182 -17 -182 5 0 0 -8 -11 -17 -11 -10 -23 -34 -27 -53 -3 -19 -9 -46 -12
-60 -3 -14 -6 -30 -6 -37 -1 -7 -5 -10 -9 -7 -5 3 -14 -16 -20 -41 -6 -25 -16
-45 -21 -45 -6 0 -8 -9 -5 -20 3 -11 1 -18 -4 -14 -5 3 -10 0 -10 -5 -1 -6 -2
-16 -3 -21 0 -6 -6 -14 -12 -18 -12 -8 -29 -52 -26 -65 1 -5 -1 -6 -6 -3 -4 2
-13 -4 -20 -15 -7 -10 -8 -19 -3 -19 5 0 -4 -14 -20 -32 -23 -24 -27 -33 -17
-39 9 -6 9 -9 1 -9 -10 0 -83 -93 -83 -106 0 -4 -10 -17 -22 -30 -43 -43 -70
-84 -56 -84 7 0 -2 -9 -21 -21 -27 -16 -31 -23 -20 -30 8 -5 9 -9 3 -9 -6 0
-34 -23 -63 -51 -50 -49 -63 -67 -38 -53 7 4 9 3 4 -2 -5 -5 -13 -9 -18 -9 -5
0 -9 -4 -9 -10 -1 -15 -101 -114 -114 -112 -5 1 -10 -3 -11 -10 0 -6 -4 -15
-9 -20 -5 -5 -6 -3 -2 5 15 26 -7 10 -59 -43 -29 -30 -58 -55 -64 -55 -5 0
-13 -4 -16 -10 -4 -6 1 -7 11 -3 12 4 15 3 10 -5 -4 -7 -15 -12 -25 -12 -9 0
-33 -18 -53 -39 -20 -22 -38 -37 -41 -35 -2 3 -22 -14 -42 -38 -21 -24 -35
-37 -31 -30 12 20 -8 13 -22 -8 -7 -11 -18 -20 -26 -20 -8 0 -29 -17 -47 -37
-18 -21 -33 -37 -33 -36 -2 7 -46 -11 -46 -18 0 -5 -14 -16 -31 -24 -16 -9
-49 -35 -71 -57 -23 -23 -38 -36 -34 -30 4 7 3 12 -3 12 -6 0 -17 -12 -25 -27
-8 -16 -15 -22 -16 -15 0 10 -4 10 -19 0 -11 -7 -17 -16 -15 -20 3 -5 2 -8 -3
-6 -17 4 -80 -31 -116 -64 -20 -20 -37 -30 -37 -24 0 6 -7 2 -16 -9 -8 -11
-18 -20 -22 -21 -20 -2 -41 -17 -36 -25 3 -5 2 -9 -3 -7 -14 3 -83 -31 -83
-41 0 -6 -3 -10 -7 -9 -19 5 -53 -15 -59 -34 -3 -11 -9 -16 -13 -11 -4 6 -17
5 -36 -4 -26 -12 -27 -13 -5 -9 l25 5 -25 -19 c-14 -10 -26 -15 -28 -10 -2 5
-10 6 -18 3 -7 -3 -11 -9 -8 -14 3 -5 -1 -6 -9 -3 -9 3 -22 -4 -31 -18 -9 -12
-16 -17 -16 -10 0 17 -59 -13 -67 -34 -3 -9 -9 -11 -12 -6 -3 5 -35 -6 -71
-25 -36 -19 -54 -31 -40 -28 39 8 -5 -10 -58 -24 -23 -7 -40 -16 -37 -20 2 -5
-15 -12 -40 -15 -30 -5 -45 -12 -45 -22 0 -8 -6 -14 -12 -13 -25 3 -39 -1 -34
-10 3 -4 -5 -6 -18 -4 -13 3 -26 0 -30 -5 -4 -6 3 -8 16 -5 19 4 17 2 -6 -11
-33 -19 -40 -20 -31 -6 10 17 -48 -9 -72 -32 -13 -12 -23 -17 -23 -11 0 7 -11
6 -35 -1 -27 -8 -31 -12 -17 -18 12 -5 9 -7 -12 -7 -45 -1 -109 -23 -128 -43
-9 -11 -18 -15 -20 -10 -5 13 -61 -5 -85 -27 -12 -11 -23 -16 -25 -11 -2 5
-21 5 -47 -2 -36 -9 -41 -13 -25 -19 16 -6 15 -8 -8 -8 -15 -1 -30 -5 -33 -11
-3 -5 -11 -10 -16 -10 -6 0 -8 4 -4 9 3 6 -10 5 -32 -1 -56 -14 -92 -31 -87
-40 3 -4 0 -8 -5 -8 -6 0 -11 4 -11 8 0 4 -26 3 -57 -3 -51 -9 -54 -11 -27
-16 25 -6 24 -7 -14 -8 -27 -1 -41 -5 -37 -11 4 -7 -2 -9 -19 -4 -36 9 -105
-4 -85 -17 10 -6 5 -9 -18 -9 -18 0 -33 -4 -33 -9 0 -16 18 -22 23 -9 3 7 6 3
6 -8 1 -12 8 -27 16 -34 18 -15 20 0 3 20 -7 8 -1 4 15 -9 20 -18 24 -27 15
-33 -10 -6 -9 -8 3 -8 9 0 22 -7 29 -15 7 -8 17 -12 23 -8 5 3 7 1 4 -4 -6
-10 27 -48 42 -48 3 0 5 -3 4 -6 -1 -4 8 -15 20 -25 18 -16 20 -16 8 -1 -21
26 -7 20 20 -10 13 -14 18 -23 10 -18 -9 5 -12 4 -7 -3 4 -7 16 -12 27 -12 11
0 17 -4 14 -10 -9 -14 83 -102 97 -94 7 5 8 3 4 -5 -9 -14 24 -42 38 -34 5 4
6 1 2 -5 -6 -11 10 -27 29 -27 6 0 10 -5 10 -12 0 -15 13 -28 28 -28 7 0 12
-5 12 -12 0 -15 13 -28 28 -28 7 0 12 -5 12 -12 0 -14 13 -28 28 -28 7 -1 11
-6 10 -11 -2 -11 104 -121 112 -116 3 1 5 -1 5 -5 1 -15 103 -112 112 -107 5
3 7 2 6 -3 -4 -13 203 -232 216 -230 6 1 10 -3 9 -9 -1 -6 14 -26 32 -44 19
-19 35 -41 35 -49 0 -14 1 -14 10 -1 7 10 10 11 11 3 1 -7 2 -17 3 -21 1 -11
75 -91 186 -202 47 -47 76 -78 66 -70 -16 12 -18 12 -11 1 9 -15 47 -52 80
-76 l20 -15 -20 6 c-17 6 -18 5 -7 -7 7 -8 18 -14 25 -14 7 0 12 -5 12 -11 0
-6 10 -22 23 -35 12 -13 29 -33 38 -44 8 -11 12 -13 8 -5 -4 8 -4 12 0 8 4 -3
8 -10 8 -15 0 -4 20 -29 44 -55 24 -26 44 -52 44 -58 0 -5 5 -10 11 -10 5 0 7
5 3 12 -4 7 -3 8 5 4 6 -4 9 -11 6 -15 -2 -5 14 -28 38 -51 23 -24 42 -48 42
-54 0 -6 10 -16 23 -22 13 -6 23 -15 22 -18 -1 -4 8 -17 19 -29 12 -12 28 -31
37 -42 8 -11 12 -14 8 -6 -5 9 -3 12 5 7 6 -4 9 -11 6 -16 -3 -4 3 -14 12 -21
9 -8 24 -27 35 -44 10 -16 18 -24 18 -16 0 10 7 7 25 -9 13 -12 22 -26 20 -31
-3 -4 8 -20 25 -36 16 -15 30 -32 30 -36 0 -14 110 -132 123 -132 7 -1 11 -6
10 -12 -2 -7 16 -28 40 -49 23 -20 36 -34 30 -30 -28 15 -10 -8 45 -62 31 -31
57 -59 57 -62 0 -4 29 -38 65 -76 36 -38 56 -58 45 -44 l-20 25 27 -24 c15
-13 25 -27 23 -31 -2 -4 11 -22 30 -40 19 -19 35 -41 35 -49 0 -12 2 -13 8 -3
6 9 15 5 33 -15 13 -15 16 -21 7 -14 -14 10 -18 10 -18 1 0 -6 9 -14 20 -17
11 -3 20 -10 20 -15 0 -6 27 -36 60 -68 33 -32 60 -62 60 -67 0 -5 14 -22 32
-39 17 -16 27 -23 23 -15 -5 10 -4 12 4 7 6 -4 9 -11 7 -15 -7 -11 109 -123
119 -114 4 5 5 3 2 -3 -8 -14 136 -157 148 -147 4 4 5 3 2 -3 -6 -10 29 -45
158 -163 11 -10 31 -22 44 -26 18 -5 20 -9 10 -16 -11 -7 -11 -9 2 -9 9 0 22
-7 29 -15 7 -8 17 -12 23 -8 5 3 7 1 4 -4 -6 -10 14 -25 36 -27 4 -1 11 -7 16
-14 13 -21 112 -75 138 -75 7 0 10 -4 7 -9 -5 -8 53 -25 69 -20 5 1 6 -2 2 -8
-3 -5 -5 -10 -3 -10 2 0 30 -5 63 -10 33 -5 105 -11 160 -12 58 -1 87 -4 70
-8 -28 -6 -28 -6 15 -13 82 -11 83 -11 85 -47 2 -22 0 -28 -6 -19 -7 11 -9 10
-9 -5 0 -20 -57 -85 -75 -86 -5 -1 -23 -12 -40 -26 -16 -15 -24 -23 -16 -19 9
6 12 4 7 -4 -4 -6 -11 -9 -16 -6 -5 3 -11 1 -15 -5 -3 -5 -14 -10 -24 -10 -10
0 -28 -11 -40 -24 -13 -14 -30 -22 -40 -19 -10 2 -32 -7 -49 -22 -19 -16 -32
-22 -32 -14 0 10 -3 10 -12 1 -7 -7 -21 -12 -33 -13 -20 0 -20 0 0 -9 l20 -9
-20 -1 c-60 -4 -98 -17 -123 -40 -12 -11 -22 -16 -22 -11 0 6 -7 8 -15 5 -8
-4 -13 -9 -10 -13 2 -4 -8 -6 -24 -3 -17 2 -32 -2 -40 -12 -8 -9 -27 -16 -43
-16 -32 0 -98 -27 -110 -44 -5 -8 -8 -8 -8 0 0 6 -13 9 -32 6 -28 -4 -30 -6
-13 -13 12 -5 0 -6 -30 -3 -36 3 -45 2 -30 -5 17 -8 14 -10 -18 -10 -23 -1
-36 -5 -32 -11 3 -6 -3 -10 -15 -10 -12 0 -18 4 -15 10 8 12 -55 1 -73 -13 -7
-6 -36 -11 -65 -13 -164 -8 -286 -18 -283 -23 2 -3 -19 -7 -47 -7 -51 -2 -51
-2 -12 6 24 4 -36 8 -157 9 -108 0 -205 4 -215 8 -10 3 -15 2 -10 -3 5 -5 66
-12 135 -15 114 -6 109 -6 -48 -4 -228 3 -494 31 -536 56 -17 11 -40 19 -52
19 -20 0 -99 38 -157 76 -34 22 -164 142 -210 193 -16 19 -56 62 -87 96 -32
34 -72 84 -90 111 -18 27 -50 72 -70 99 -21 28 -38 54 -38 59 0 6 -11 21 -24
35 -14 15 -36 49 -51 76 -14 28 -39 70 -55 95 -26 40 -79 127 -112 185 -12 20
-63 101 -130 205 -19 30 -43 69 -52 85 -9 17 -32 50 -51 75 -18 25 -34 49 -34
53 -1 4 -9 20 -20 35 -27 39 -94 141 -106 161 -6 9 -42 63 -80 120 -71 104
-95 141 -150 226 -16 25 -47 68 -67 95 -21 27 -53 73 -73 102 -19 29 -53 78
-75 108 -23 30 -49 66 -58 80 -9 13 -24 32 -32 42 -22 24 -32 37 -70 93 -44
62 -143 192 -173 225 -37 40 -101 123 -120 152 -10 16 -35 47 -56 70 -21 24
-56 63 -78 88 -23 25 -59 70 -82 100 -23 30 -119 136 -214 235 -95 99 -200
209 -233 243 -32 35 -70 70 -84 78 -29 15 -115 94 -102 94 4 0 26 -18 47 -40
21 -22 49 -40 60 -40 13 0 35 -16 55 -42 32 -40 137 -151 330 -350 114 -118
210 -228 210 -242 0 -3 18 -24 40 -46 22 -22 40 -43 40 -46 0 -3 16 -22 36
-42 20 -20 43 -50 51 -67 9 -16 22 -34 29 -38 8 -4 14 -13 14 -18 0 -6 19 -30
43 -54 23 -24 50 -54 60 -67 10 -13 41 -52 68 -88 28 -36 73 -96 99 -135 26
-38 59 -81 71 -95 13 -13 40 -48 59 -76 106 -157 131 -192 159 -223 17 -19 34
-43 37 -54 4 -11 10 -25 15 -31 40 -48 69 -91 69 -101 0 -6 9 -20 20 -30 11
-10 20 -24 20 -31 0 -7 6 -17 14 -21 12 -7 22 -22 64 -99 7 -13 17 -24 21 -24
5 0 15 -14 22 -32 7 -18 20 -40 29 -49 41 -46 65 -84 94 -145 8 -17 21 -36 29
-43 8 -6 18 -23 21 -36 4 -14 11 -25 16 -25 5 0 25 -28 45 -62 20 -35 49 -83
65 -108 16 -25 34 -55 39 -66 5 -12 17 -24 25 -27 9 -4 16 -15 16 -25 0 -10
11 -33 25 -52 14 -19 25 -40 25 -47 0 -7 4 -13 9 -13 5 0 14 -13 21 -29 6 -16
20 -37 31 -47 10 -9 19 -25 19 -34 0 -9 9 -25 20 -35 11 -10 20 -24 20 -30 0
-7 9 -24 20 -38 11 -14 20 -31 20 -37 0 -7 11 -21 25 -32 14 -11 25 -23 25
-28 0 -5 14 -29 30 -52 75 -106 90 -129 90 -136 0 -6 35 -44 181 -198 67 -71
171 -167 194 -180 67 -39 147 -74 169 -74 13 0 31 -6 38 -14 22 -21 44 -25
187 -30 94 -4 131 -2 124 5 -6 6 -27 11 -46 11 -19 0 -40 4 -48 10 -11 8 -10
9 4 4 11 -4 16 -2 11 5 -3 6 -17 9 -30 6 -13 -2 -21 -1 -19 3 3 5 -2 11 -11
14 -8 3 -12 2 -9 -4 4 -6 -5 -5 -19 1 -14 7 -23 15 -21 19 2 4 -7 12 -21 19
-14 6 -23 7 -19 1 3 -6 -1 -7 -10 -4 -8 4 -20 15 -26 26 -7 13 -16 17 -27 13
-9 -3 -13 -3 -9 1 9 10 -23 45 -35 38 -4 -3 -7 0 -6 8 2 7 -3 12 -10 10 -8 -1
-11 1 -8 6 7 12 -40 56 -53 48 -5 -4 -13 -1 -17 5 -5 8 -3 9 6 4 9 -5 11 -4 6
3 -4 7 -13 12 -21 12 -8 0 -17 5 -21 12 -5 7 -3 8 5 3 10 -6 11 -3 3 11 -12
22 -66 75 -78 77 -5 1 -7 11 -6 22 2 15 1 17 -6 6 -7 -10 -13 -6 -23 17 -7 17
-22 33 -32 36 -13 3 -17 10 -14 20 3 8 1 18 -5 22 -7 5 -8 2 -3 -6 5 -9 4 -11
-3 -6 -7 4 -12 14 -12 22 0 9 -5 12 -12 8 -7 -5 -9 -2 -5 8 6 16 -25 53 -35
43 -3 -3 -5 4 -4 17 1 14 -5 23 -14 23 -8 0 -15 7 -15 16 0 22 -34 71 -45 64
-4 -3 -6 5 -3 17 3 15 2 19 -4 11 -6 -9 -14 -4 -27 19 -11 17 -13 28 -6 23 19
-11 -4 25 -32 51 -27 25 -67 91 -49 79 9 -5 9 -1 -1 14 -7 12 -16 21 -20 21
-4 0 -12 10 -19 21 -9 17 -8 20 3 13 13 -7 -9 21 -44 58 -10 10 -18 27 -18 39
0 11 -4 17 -10 14 -9 -5 -12 2 -9 21 1 3 -12 20 -28 36 -15 17 -21 27 -13 22
12 -7 12 -3 -2 16 -9 14 -22 24 -28 22 -6 -1 -9 2 -6 7 3 5 2 20 -3 33 -6 13
-10 16 -11 8 0 -11 -4 -10 -12 5 -7 11 -13 25 -14 30 0 6 -2 16 -2 23 -1 7 -7
10 -12 7 -6 -4 -13 7 -16 25 -4 17 -11 33 -17 37 -6 4 -7 1 -2 -7 5 -9 4 -11
-3 -6 -7 4 -17 16 -23 28 -8 15 -8 19 1 13 8 -5 8 -1 -1 13 -7 12 -17 18 -21
16 -5 -3 -11 9 -15 27 -3 18 -13 34 -24 36 -10 3 -20 12 -23 20 -3 7 -2 12 3
9 5 -4 7 4 3 16 -3 13 -7 17 -10 10 -3 -9 -9 -7 -19 7 -8 12 -12 25 -8 30 3 5
0 13 -6 17 -8 4 -9 3 -5 -4 15 -24 -2 -11 -19 14 -9 15 -13 24 -7 20 6 -3 5 4
-1 18 -7 14 -14 21 -17 16 -3 -4 -14 4 -24 18 -11 14 -14 22 -8 18 8 -5 10 -2
6 8 -3 9 -10 13 -15 10 -5 -3 -9 4 -9 16 0 12 -4 18 -10 15 -6 -4 -10 -3 -9 2
4 21 -2 44 -10 39 -12 -8 -34 21 -26 34 4 7 -2 14 -14 17 -12 3 -21 10 -20 17
1 6 -3 22 -9 36 -6 14 -11 19 -11 11 -1 -11 -5 -10 -15 4 -8 11 -12 23 -9 28
7 12 -18 38 -30 30 -6 -4 -8 0 -4 10 4 10 -6 27 -26 48 -18 18 -25 28 -17 23
12 -7 12 -3 -2 16 -9 14 -21 24 -27 22 -6 -1 -11 7 -11 18 0 11 -11 27 -25 36
-24 16 -37 43 -13 28 7 -4 8 -3 4 5 -4 6 -10 9 -14 7 -4 -2 -16 8 -27 23 -18
24 -18 25 0 11 18 -15 18 -14 1 13 -10 15 -22 27 -27 27 -5 0 -12 12 -15 26
-4 14 -9 21 -13 16 -3 -5 -15 2 -25 16 -12 15 -14 22 -5 17 10 -7 10 -3 -3 15
-9 14 -21 24 -27 22 -10 -2 -15 11 -12 31 1 4 -6 10 -14 13 -8 4 -15 14 -15
24 0 11 -5 22 -12 26 -7 5 -8 3 -3 -7 5 -8 -1 -6 -13 4 -11 11 -19 24 -16 31
3 7 -6 21 -18 32 -23 19 -23 19 -8 -1 14 -18 14 -19 -2 -7 -9 8 -14 20 -12 27
3 7 -4 18 -15 25 -12 6 -21 17 -21 25 0 7 -12 23 -27 35 -16 12 -21 18 -13 14
13 -7 12 -4 -1 16 -9 14 -23 25 -30 25 -9 0 -13 9 -11 23 2 12 -2 22 -8 22
-12 0 -80 63 -80 74 0 4 5 4 12 0 7 -4 8 -3 4 5 -4 6 -12 9 -17 6 -5 -4 -9 1
-9 10 0 10 -5 13 -12 9 -7 -5 -9 -2 -5 8 6 17 -24 52 -36 43 -4 -3 -5 -2 -3 1
2 3 -7 17 -20 31 -13 14 -22 29 -19 33 3 4 -4 10 -15 13 -12 3 -20 14 -20 26
0 14 -9 25 -25 31 -14 5 -25 12 -25 15 0 4 5 3 12 -1 7 -5 8 -2 3 7 -17 30
-38 48 -49 42 -6 -3 -8 -3 -4 2 10 11 -11 37 -23 29 -5 -3 -9 -2 -8 3 1 4 1
17 0 28 -1 16 -3 17 -11 5 -7 -12 -12 -7 -24 20 -8 19 -15 31 -16 26 0 -12
-40 24 -40 36 0 5 5 6 12 2 7 -4 8 -3 4 5 -4 6 -12 9 -17 6 -5 -4 -9 0 -9 8 0
8 -8 21 -17 28 -17 13 -17 13 -3 -6 14 -19 14 -19 -2 -6 -10 7 -18 19 -18 25
0 13 -46 57 -52 51 -2 -2 -10 6 -17 18 -13 21 -13 21 5 7 19 -14 19 -14 0 7
-10 13 -23 20 -28 17 -4 -3 -7 -1 -6 4 2 5 -28 42 -67 83 -38 40 -65 67 -61
59 5 -8 -25 20 -67 63 -42 43 -75 84 -74 90 1 7 -3 11 -10 10 -7 -2 -65 50
-130 114 -65 64 -111 112 -103 107 9 -5 7 -1 -4 9 -19 18 -20 18 -37 -14 -11
-22 -18 -28 -22 -18 -2 8 -5 -1 -4 -19 0 -20 -8 -41 -21 -55 -12 -13 -22 -29
-22 -35 0 -20 -9 -14 -87 55 -41 38 -80 67 -87 65 -6 -2 -8 0 -3 4 7 7 -40 64
-53 64 -11 0 -42 -81 -36 -96 3 -8 2 -13 -3 -10 -5 3 -11 -1 -15 -9 -3 -8 -1
-15 5 -15 6 0 3 -7 -6 -17 -18 -18 -32 -49 -39 -90 -3 -14 -10 -29 -15 -32 -5
-4 -13 -20 -16 -36 -4 -17 -14 -41 -22 -54 -8 -12 -13 -32 -10 -42 3 -10 1
-17 -4 -13 -5 3 -9 2 -10 -3 0 -4 -3 -17 -5 -28 -3 -11 -6 -25 -6 -32 -1 -7
-5 -10 -9 -8 -4 3 -12 -18 -19 -45 -7 -28 -16 -50 -20 -50 -8 0 -26 -77 -22
-93 2 -5 -1 -6 -6 -3 -10 6 -32 -59 -32 -93 0 -12 -4 -20 -9 -17 -9 6 -26 -43
-17 -51 3 -3 -4 -15 -15 -27 -12 -12 -19 -30 -16 -43 2 -13 0 -20 -6 -16 -6 4
-8 -4 -5 -21 3 -14 2 -26 -1 -26 -12 0 -49 -106 -53 -152 -1 -15 -5 -25 -9
-23 -3 2 -11 -11 -17 -30 -7 -26 -7 -35 1 -36 8 0 8 -2 0 -6 -7 -2 -13 -17
-14 -31 0 -23 -2 -24 -8 -8 -5 13 -11 -2 -20 -53 -7 -39 -16 -73 -21 -76 -4
-2 -10 -22 -13 -42 -4 -21 -9 -56 -13 -78 -3 -22 -10 -42 -14 -45 -5 -3 -14
-48 -21 -100 -8 -60 -15 -87 -19 -75 -5 13 -10 -7 -15 -55 -4 -41 -13 -84 -19
-95 -16 -24 -26 -85 -14 -85 4 0 8 -5 8 -11 0 -5 -4 -7 -10 -4 -6 4 -10 -5
-10 -20 0 -14 -4 -33 -10 -43 -12 -21 -28 -242 -18 -242 5 0 8 -7 8 -15 0 -8
-4 -15 -10 -15 -6 0 -10 -51 -10 -134 0 -87 -4 -137 -11 -142 -6 -3 -9 -17 -6
-30 2 -13 1 -21 -3 -19 -8 5 -24 -24 -21 -38 1 -5 -3 -5 -9 -2 -6 4 -17 -1
-24 -10 -19 -26 -144 -18 -185 13 -21 15 -44 22 -76 22 -25 0 -45 4 -45 10 0
5 -10 14 -21 21 -15 8 -19 8 -15 0 4 -6 2 -11 -3 -11 -6 0 -11 5 -11 10 0 6
-7 10 -15 10 -8 0 -15 4 -15 10 0 5 -10 14 -21 21 -17 9 -20 8 -14 -2 12 -19
-17 1 -33 23 -15 21 -59 47 -47 28 5 -8 1 -8 -13 1 -12 7 -18 17 -16 21 3 4 0
8 -7 8 -7 0 -28 12 -47 27 -20 15 -31 20 -27 12 7 -11 3 -10 -15 2 -14 9 -25
21 -25 27 0 6 -4 14 -9 19 -5 5 -6 3 -2 -4 10 -18 -2 -16 -20 2 -9 8 -13 15
-9 15 3 0 -10 14 -28 30 -19 17 -42 30 -51 30 -10 0 -15 4 -12 9 3 4 -4 17
-17 27 -14 13 -18 14 -12 4 6 -9 -3 -2 -18 15 -16 16 -25 23 -21 15 5 -10 1
-9 -14 4 -12 10 -20 22 -19 26 1 4 -1 7 -4 6 -11 -2 -39 26 -34 34 3 5 0 12
-6 16 -8 4 -9 3 -5 -4 15 -25 -4 -9 -82 68 -76 75 -98 101 -70 84 7 -4 8 -3 4
5 -4 6 -11 9 -16 6 -8 -5 -25 12 -32 30 -1 6 -6 9 -9 8 -4 -1 -15 7 -25 19
-13 14 -14 19 -4 13 8 -4 -1 7 -20 25 -19 18 -28 28 -20 24 9 -5 4 2 -10 15
-14 13 -18 20 -10 16 8 -5 -2 10 -22 31 -36 38 -50 63 -28 49 20 -12 10 6 -17
31 -21 19 -26 33 -25 64 1 21 -3 42 -8 45 -6 3 -10 21 -9 38 0 27 2 29 9 12 7
-15 9 -10 10 25 4 80 19 148 30 130 5 -7 9 -2 12 14 3 16 1 23 -5 19 -7 -4 -8
1 -2 13 4 10 13 34 20 53 8 23 15 29 19 20 3 -8 4 -3 2 10 -5 26 13 73 24 66
5 -3 13 9 19 25 6 18 6 28 1 25 -6 -4 -10 -2 -10 4 0 6 8 15 18 20 10 5 23 26
29 45 6 20 7 34 3 31 -5 -3 -3 8 3 25 6 16 14 25 17 20 3 -5 11 5 18 23 10 29
10 30 -3 13 -21 -28 -19 -13 5 31 11 21 20 31 21 23 0 -10 3 -8 9 5 12 27 12
43 0 25 -7 -11 -10 -11 -10 -2 0 7 12 24 26 37 14 13 24 32 22 42 -2 10 3 24
12 31 8 8 9 11 3 7 -21 -10 -15 10 12 39 26 28 33 42 15 31 -21 -13 -8 16 20
45 28 29 41 58 20 45 -20 -12 -9 11 20 43 17 18 30 36 30 40 0 4 -7 -2 -15
-12 -18 -24 -19 -19 -4 22 6 18 14 30 19 27 4 -3 12 1 18 8 12 15 22 68 11 62
-4 -3 -2 6 4 20 7 14 15 25 19 25 4 0 12 10 19 21 8 15 8 19 0 15 -6 -4 -11
-2 -11 4 0 6 7 13 15 16 8 4 13 10 10 14 -9 14 14 62 41 87 18 16 24 31 21 44
-6 24 13 75 22 60 4 -5 11 5 17 24 6 19 7 32 2 29 -18 -11 -7 16 17 42 14 15
25 38 25 50 0 13 4 24 10 24 5 0 14 10 20 23 11 21 10 21 -4 3 -18 -23 -20
-18 -6 19 6 16 14 23 22 19 7 -4 8 -3 4 5 -4 6 -4 21 -1 32 6 17 9 19 16 8 7
-11 9 -9 10 6 1 11 1 26 -1 34 -1 7 7 23 18 35 26 29 38 51 24 42 -14 -8 -15
-4 -6 18 3 9 10 13 15 10 5 -3 9 -2 8 3 -4 21 2 44 10 39 5 -3 11 1 15 9 3 8
1 15 -5 15 -6 0 -5 9 3 23 7 12 19 42 28 67 8 25 21 45 29 45 8 0 18 12 22 28
4 16 4 25 -2 21 -5 -3 -4 6 2 20 7 14 15 23 20 21 10 -7 22 31 15 53 -3 9 2
28 10 42 15 25 15 25 10 2 -7 -33 5 -19 20 23 6 19 8 32 3 29 -20 -12 -7 25
14 39 16 11 19 18 11 27 -9 9 -14 9 -19 -1 -5 -8 -4 -10 3 -5 7 4 12 3 12 -3
0 -11 -79 -35 -88 -27 -3 3 2 6 11 6 9 0 18 4 21 8 3 4 -16 3 -40 -2 -37 -9
-41 -12 -22 -16 21 -5 21 -7 5 -13 -11 -4 -23 -5 -27 -2 -5 3 -11 1 -15 -5 -3
-5 -11 -10 -16 -10 -6 0 -8 4 -5 9 3 4 -18 4 -46 -1 -58 -11 -79 3 -51 34 32
36 0 57 -57 37 -18 -6 -14 -7 18 -3 36 5 42 3 42 -13 0 -12 -3 -14 -8 -6 -6 9
-25 10 -77 2 -38 -5 -72 -13 -75 -17 -3 -5 -27 -13 -55 -19 -27 -7 -59 -15
-70 -19 -18 -7 -19 -6 -6 10 13 16 12 16 -15 5 -16 -7 -36 -19 -45 -26 -8 -7
-29 -13 -45 -12 -16 0 -23 3 -16 6 9 3 3 12 -17 24 -17 10 -31 25 -31 33 0 8
-3 23 -6 33 -5 15 -4 15 5 3 9 -12 11 -9 11 16 0 20 6 34 16 38 9 4 14 13 10
22 -3 8 -2 12 4 9 6 -3 10 -1 10 6 0 7 10 24 23 38 17 20 18 22 3 11 -13 -10
-8 1 12 30 49 70 58 80 72 80 7 0 11 3 7 6 -3 4 4 15 16 26 12 11 16 16 9 13
-11 -6 -11 -3 -1 13 7 12 16 19 19 17 8 -5 263 250 261 261 0 5 3 9 7 9 5 0
20 11 33 25 13 15 17 17 9 5 -8 -11 1 -5 21 13 19 17 41 32 49 32 10 0 11 3 4
8 -7 4 8 21 40 45 42 32 45 33 16 7 -42 -39 -10 -23 40 19 29 25 33 32 22 43
-11 11 -12 10 -7 -3 4 -10 1 -20 -6 -25 -7 -4 -10 -3 -6 3 4 6 0 16 -8 23 -8
7 -13 16 -10 20 3 5 0 12 -6 16 -8 4 -9 3 -5 -4 15 -25 -10 -10 -33 18 l-24
31 -19 -21 c-10 -11 -30 -20 -43 -20 -22 0 -25 4 -23 38 1 36 1 36 5 5 2 -18
7 -33 10 -33 3 0 22 10 42 22 35 22 39 24 62 27 5 0 8 5 5 10 -4 5 4 7 16 4
19 -4 20 -3 8 6 -13 9 -13 11 3 12 9 1 20 2 25 3 4 1 25 5 46 10 21 4 45 14
53 22 8 8 28 14 44 14 26 0 32 7 59 66 16 37 30 72 30 78 0 6 7 25 16 41 9 17
22 50 30 75 22 77 54 164 66 185 6 11 15 34 19 50 7 30 7 30 8 -7 1 -22 -6
-43 -15 -53 -9 -9 -21 -37 -25 -62 -5 -26 -15 -54 -23 -62 -7 -9 -17 -34 -21
-56 -3 -22 -15 -54 -26 -71 -10 -17 -19 -39 -19 -49 0 -9 -14 -46 -31 -81 -27
-59 -33 -64 -62 -64 -24 0 -28 -3 -19 -12 7 -7 12 -29 12 -50 0 -30 4 -38 18
-37 11 0 13 2 4 6 -18 7 33 33 66 33 14 0 22 3 19 7 -12 11 44 41 66 35 14 -3
18 -1 13 6 -5 8 0 12 13 12 11 0 23 5 27 11 4 6 20 9 39 6 24 -4 36 0 49 15
10 11 15 26 12 34 -3 8 -1 14 3 14 5 0 12 7 15 16 3 8 2 12 -4 9 -16 -10 -11
3 8 22 20 19 38 58 23 49 -5 -3 -3 11 5 32 7 20 17 36 23 35 6 -2 10 13 9 32
-1 24 6 43 20 58 13 14 22 36 22 56 0 18 9 46 21 62 12 17 21 45 21 64 0 19 4
38 9 41 5 3 9 14 9 25 0 11 4 18 9 14 5 -3 9 9 9 26 -1 20 6 37 16 45 11 8 21
33 25 66 5 36 11 52 20 50 9 -2 12 5 9 22 -3 14 -1 23 3 20 5 -3 8 13 7 36 -1
29 4 44 17 54 13 9 19 29 22 72 2 32 8 63 15 69 8 7 9 6 3 -5 -6 -11 -5 -12 4
-4 7 6 13 28 14 48 1 20 6 36 10 36 5 0 5 5 2 11 -9 14 3 61 14 55 5 -3 11 5
13 19 3 13 1 22 -3 19 -5 -3 -9 -1 -9 5 0 5 4 12 8 15 5 3 9 22 10 42 1 20 8
41 16 48 11 8 17 37 20 99 3 62 9 92 20 100 15 13 27 105 13 110 -4 1 -4 28 1
60 5 31 7 59 4 62 -8 8 -52 -37 -46 -47 8 -13 -16 -39 -29 -31 -6 4 -7 1 -3
-6 5 -8 -7 -25 -33 -48 -40 -34 -78 -85 -50 -68 8 5 10 4 5 -3 -4 -7 -14 -12
-22 -12 -8 0 -14 -3 -15 -7 -3 -31 -11 -46 -36 -68 -15 -15 -22 -23 -15 -20
11 6 12 3 2 -14 -6 -12 -15 -19 -19 -16 -5 2 -15 -3 -22 -13 -13 -15 -12 -16
4 -3 25 20 21 5 -10 -36 -20 -26 -29 -52 -34 -99 -4 -37 -13 -69 -23 -79 -10
-10 -16 -33 -16 -59 0 -30 -6 -48 -20 -61 -14 -12 -20 -31 -20 -59 0 -24 -8
-53 -20 -71 -11 -16 -23 -50 -26 -75 -7 -43 -44 -120 -44 -90 0 9 6 24 14 35
7 11 17 40 21 65 4 25 16 61 26 80 11 19 19 48 19 65 0 17 7 40 15 52 8 11 17
40 21 64 4 24 13 57 21 73 14 27 17 49 23 146 1 19 4 27 7 18 6 -25 18 -22 19
5 0 12 4 31 8 42 6 15 6 17 -3 5 -16 -23 -22 -6 -10 28 6 17 14 61 19 99 l8
68 -1 -72 c-1 -40 1 -69 5 -65 8 9 15 192 7 192 -6 0 6 95 15 108 2 4 1 14 -4
22 -7 11 -16 7 -43 -16 -21 -17 -34 -35 -31 -44 3 -8 2 -11 -1 -8 -8 8 -65
-55 -65 -71 0 -6 -7 -11 -16 -11 -11 0 -15 -6 -11 -20 3 -10 2 -18 -2 -17 -3
1 -7 -2 -8 -6 -1 -5 -13 -17 -28 -28 -14 -12 -22 -25 -19 -31 4 -6 2 -8 -3 -5
-6 4 -14 -1 -18 -11 -8 -16 -10 -23 -14 -47 -1 -5 -5 -4 -10 3 -6 10 -10 9
-14 -7 -3 -14 -1 -19 6 -15 7 4 -5 -8 -25 -25 -21 -18 -38 -41 -38 -51 0 -30
-21 -68 -40 -73 -19 -5 -47 -47 -31 -47 5 0 -4 -14 -20 -32 -19 -19 -26 -34
-19 -38 6 -4 0 -11 -15 -18 -14 -6 -26 -17 -26 -24 -5 -57 -10 -74 -26 -86
-10 -7 -17 -20 -15 -29 2 -8 -1 -13 -5 -10 -5 3 -14 -3 -21 -14 -7 -11 -8 -19
-2 -19 5 0 10 -5 10 -11 0 -5 -4 -8 -9 -5 -5 3 -26 -29 -47 -72 -47 -95 -50
-102 -30 -78 9 11 16 26 16 35 0 8 3 12 6 8 8 -7 -18 -77 -28 -77 -4 0 -8 -7
-8 -16 0 -8 -4 -13 -10 -9 -5 3 -15 -21 -22 -55 -8 -39 -15 -56 -21 -47 -5 8
-7 2 -4 -15 2 -15 1 -25 -4 -23 -7 5 -25 -71 -21 -88 2 -5 -2 -6 -7 -3 -5 3
-13 -12 -19 -34 -6 -25 -6 -40 0 -40 5 0 1 -12 -10 -27 -23 -34 -44 -133 -29
-133 7 0 7 -4 -1 -12 -7 -7 -12 -30 -13 -53 -1 -36 -2 -37 -10 -15 -6 18 -8 8
-5 -35 2 -35 1 -52 -4 -40 -5 14 -8 5 -11 -33 -2 -30 -1 -56 3 -58 3 -2 2 -19
-3 -37 -5 -17 -9 -46 -9 -63 0 -19 -6 -34 -15 -38 -17 -6 -21 -61 -5 -71 12
-8 3 -46 -14 -57 -7 -5 -6 -8 4 -8 12 -1 12 -2 -2 -10 -13 -8 -23 -4 -44 15
-14 13 -30 22 -35 19 -5 -2 -11 7 -15 21 -3 14 -10 25 -15 25 -6 0 -5 -10 2
-21 11 -21 11 -21 -14 -3 -14 11 -23 22 -21 26 2 4 -1 10 -7 14 -8 4 -9 3 -5
-4 12 -19 -8 -14 -32 8 -12 11 -27 20 -34 20 -10 0 -10 2 0 9 11 6 9 9 -6 13
-16 5 -21 -1 -26 -24 -3 -17 -6 -41 -6 -53 0 -13 -8 -33 -18 -46 l-19 -22 -49
23 c-27 13 -87 53 -133 89 -89 70 -309 309 -369 401 -20 30 -43 62 -53 72 -9
9 -27 34 -40 55 -12 21 -41 61 -63 89 -38 48 -80 110 -116 173 -8 14 -30 48
-48 74 -18 27 -39 63 -47 80 -8 18 -19 39 -24 47 -21 32 -61 128 -61 146 0 11
-8 31 -17 44 -13 19 -19 51 -21 127 -4 88 -1 108 17 146 11 24 21 50 21 59 0
8 9 27 20 41 11 14 20 28 20 32 0 14 62 135 76 146 8 6 14 16 14 21 0 12 132
210 160 239 12 13 46 56 75 94 29 39 72 91 96 116 24 26 58 62 75 80 141 154
404 390 643 579 66 52 215 149 221 144 6 -7 -50 -52 -75 -60 -11 -4 -43 -25
-72 -48 -28 -23 -68 -52 -88 -66 -36 -25 -51 -38 -121 -99 -21 -19 -67 -56
-101 -82 -35 -27 -92 -76 -128 -111 -35 -35 -89 -87 -120 -116 -30 -30 -55
-58 -55 -63 0 -5 -5 -9 -10 -9 -6 0 -32 -23 -58 -51 -26 -28 -71 -77 -101
-108 -30 -31 -62 -69 -71 -84 -16 -26 -62 -83 -117 -143 -13 -14 -23 -31 -23
-38 0 -7 -9 -21 -20 -31 -11 -10 -20 -24 -20 -30 0 -7 -7 -15 -15 -18 -8 -4
-21 -21 -30 -39 -22 -47 -39 -75 -58 -96 -10 -10 -17 -25 -17 -34 0 -8 -8 -26
-19 -39 -10 -13 -22 -35 -26 -49 -4 -14 -13 -32 -20 -40 -7 -8 -16 -31 -20
-50 -4 -19 -16 -46 -27 -61 -18 -24 -20 -39 -16 -127 3 -74 8 -105 20 -119 9
-10 19 -37 23 -61 4 -23 13 -48 20 -55 7 -7 16 -27 20 -45 3 -17 11 -34 16
-38 5 -3 18 -22 28 -42 43 -86 52 -100 66 -106 8 -3 15 -13 15 -23 0 -19 47
-93 67 -106 7 -4 13 -14 13 -22 0 -7 20 -38 45 -68 25 -31 45 -60 45 -65 0 -5
9 -17 20 -27 11 -10 20 -23 20 -28 0 -5 10 -20 23 -32 37 -37 67 -76 67 -87 0
-32 367 -418 398 -418 3 0 14 -8 24 -17 10 -9 35 -23 56 -30 31 -10 39 -10 53
3 22 20 36 122 18 138 -9 8 -10 8 -4 -4 4 -8 -1 -6 -12 5 -11 11 -33 33 -49
49 -16 16 -22 26 -14 22 8 -4 7 -1 -3 6 -34 24 -53 40 -37 32 8 -4 -4 11 -27
34 -24 24 -43 50 -43 59 0 9 -3 13 -7 9 -8 -8 -73 53 -73 68 0 6 5 4 10 -4 5
-8 10 -10 10 -4 0 12 -30 42 -45 44 -5 1 -9 8 -7 15 1 8 -7 19 -18 25 -11 6
-20 20 -20 32 0 12 -3 18 -6 15 -4 -4 -15 3 -25 15 -22 25 -24 32 -6 22 6 -3
0 5 -15 20 -16 15 -28 31 -28 37 0 6 -14 22 -30 36 -17 13 -30 34 -30 44 0 11
-5 17 -10 14 -6 -4 -10 -3 -9 2 4 22 -2 43 -12 40 -6 -1 -18 9 -27 23 -11 16
-12 21 -3 16 8 -6 7 0 -4 18 -9 14 -21 23 -26 20 -5 -3 -9 -2 -8 3 4 22 -2 43
-12 40 -6 -1 -18 9 -27 23 -11 16 -12 21 -4 16 11 -7 12 -4 3 13 -7 11 -15 21
-19 21 -4 0 -13 9 -20 21 -9 14 -10 19 -2 14 9 -6 9 -2 0 14 -6 12 -16 19 -21
15 -6 -3 -10 0 -8 7 3 28 -1 50 -10 45 -5 -3 -8 2 -7 12 0 9 -5 16 -11 15 -8
-2 -13 8 -13 28 0 20 -4 28 -12 23 -7 -5 -8 -3 -4 5 5 7 1 18 -10 25 -12 10
-17 25 -16 57 1 32 -1 40 -8 29 -7 -11 -10 -6 -10 22 0 20 -4 40 -10 43 -13 8
-13 125 0 125 5 0 9 3 9 8 -1 4 0 23 1 42 2 33 3 33 10 10 7 -20 8 -16 9 22 1
26 6 50 13 54 7 5 9 2 4 -7 -4 -8 0 -5 8 5 9 11 16 32 16 47 0 15 5 31 12 35
7 5 9 2 4 -7 -4 -8 0 -5 8 5 9 11 16 25 17 30 3 37 7 53 17 71 14 25 16 11 1
-18 -10 -21 -10 -21 5 -3 9 11 16 30 16 42 0 12 7 25 16 28 9 4 14 13 10 21
-3 9 4 25 17 38 12 12 22 25 22 30 0 4 14 19 30 33 17 14 24 23 18 19 -19 -9
-16 3 7 32 12 15 20 20 20 12 1 -8 7 0 14 17 8 18 19 35 25 38 6 4 9 11 6 16
-3 5 0 12 6 16 8 4 9 3 5 -4 -13 -21 0 -13 25 15 13 15 16 21 7 14 -10 -7 -18
-9 -18 -4 0 13 45 54 52 47 3 -3 9 0 14 7 4 8 3 10 -4 5 -26 -16 -9 9 31 45
23 22 42 46 42 54 0 8 3 14 7 12 9 -3 108 94 105 104 -1 4 1 6 5 6 10 -3 157
144 155 154 -1 4 2 7 6 7 14 0 66 54 64 66 -1 6 4 10 12 8 16 -3 41 16 41 31
0 6 -7 2 -16 -9 -14 -18 -15 -18 -4 4 6 12 16 20 21 16 11 -7 79 55 79 72 0 6
11 16 25 22 14 6 25 16 25 22 0 5 5 10 11 10 5 0 7 -6 3 -12 -4 -8 -3 -10 2
-5 5 5 9 14 9 20 1 7 6 11 13 9 7 -1 11 3 10 9 -2 6 3 14 11 17 9 3 11 0 6 -9
-5 -8 1 -6 13 5 12 10 20 23 19 30 -1 6 5 10 14 8 9 -1 24 7 34 18 10 11 25
20 34 20 10 0 12 3 5 8 -7 5 -5 14 9 27 11 11 17 14 12 6 -5 -9 -3 -12 4 -10
7 3 12 9 12 14 0 13 30 45 42 45 5 0 3 -8 -4 -17 -12 -15 -10 -15 8 1 12 10
21 23 20 30 -1 6 6 10 16 8 9 -2 25 2 35 8 15 10 15 11 -3 5 -14 -4 -17 -3 -9
5 6 6 21 13 34 15 13 3 31 12 39 21 15 15 14 15 -9 5 -22 -11 -22 -9 5 13 30
26 51 34 40 16 -3 -5 0 -7 9 -4 8 3 12 12 10 19 -7 17 16 31 25 16 5 -7 14 -6
29 5 12 8 19 20 16 26 -4 6 -2 8 4 5 5 -4 21 -3 34 2 12 6 17 10 11 10 -7 1
-13 5 -13 11 0 5 7 6 17 3 10 -4 14 -2 10 4 -4 6 0 14 9 17 11 4 15 2 11 -8
-4 -11 -1 -11 19 -2 22 10 25 15 23 32 -1 8 22 24 35 24 5 0 2 -8 -5 -17 -13
-17 -12 -17 6 -4 11 8 33 26 49 40 16 15 26 20 22 14 -5 -9 -2 -11 8 -7 9 3
16 13 16 21 0 10 6 13 16 9 8 -3 13 -2 10 3 -3 5 3 11 14 14 11 3 18 1 14 -4
-3 -5 2 -6 10 -3 9 3 16 13 16 21 0 7 6 13 13 12 27 -3 48 1 43 10 -3 5 2 8
12 7 9 0 16 5 14 12 -1 7 9 12 29 12 16 0 28 4 25 9 -3 5 2 8 12 7 9 0 16 5
14 12 -1 7 9 12 29 12 20 0 28 4 23 12 -5 7 -3 8 5 4 7 -5 18 -2 24 7 14 17
51 32 42 17 -4 -6 5 -5 19 2 14 6 26 16 26 21 0 6 3 8 6 4 4 -3 12 0 20 7 7 8
24 11 40 8 19 -3 25 -1 20 7 -5 7 1 11 14 11 12 0 18 5 15 10 -6 10 15 14 44
10 7 -1 23 8 36 20 13 12 29 21 36 20 27 -4 62 0 56 7 -11 10 39 31 77 31 20
0 48 9 65 21 16 12 45 21 65 21 22 0 38 6 44 17 6 10 16 14 26 10 9 -4 15 -3
12 2 -3 5 5 11 19 13 13 3 22 2 20 -3 -9 -14 40 3 52 19 7 8 21 12 33 9 11 -3
17 -1 14 4 -3 6 5 7 22 3 16 -4 25 -3 21 3 -3 5 6 8 22 5 16 -2 32 1 36 9 6 8
4 10 -5 4 -9 -6 -11 -4 -6 4 5 7 20 12 34 11 47 -3 73 0 68 8 -2 4 11 6 30 4
24 -3 35 0 40 12 5 12 20 16 66 16 32 0 57 3 55 8 -3 4 11 7 31 7 23 0 36 5
35 12 -2 7 19 11 63 12 35 0 72 5 82 11 13 8 9 9 -18 5 -19 -3 -74 -7 -121 -8
-53 -2 -93 -8 -103 -16 -8 -7 -57 -16 -109 -21 -52 -4 -107 -14 -123 -23 -16
-8 -57 -17 -90 -20 -34 -2 -72 -12 -85 -20 -13 -8 -53 -18 -89 -22 -36 -4 -72
-14 -81 -21 -9 -8 -40 -17 -68 -21 -29 -3 -69 -14 -89 -24 -20 -11 -50 -19
-67 -19 -16 0 -43 -9 -60 -20 -16 -11 -42 -20 -57 -20 -15 0 -42 -9 -60 -19
-18 -10 -49 -22 -69 -25 -21 -4 -42 -13 -48 -20 -7 -8 -28 -17 -48 -21 -20 -3
-52 -15 -72 -26 -20 -10 -43 -19 -51 -19 -8 0 -28 -9 -45 -20 -16 -11 -40 -20
-51 -20 -12 0 -27 -7 -34 -15 -7 -8 -30 -19 -51 -25 -21 -6 -47 -22 -57 -35
-11 -14 -25 -25 -32 -25 -7 0 -10 -6 -7 -14 3 -7 1 -18 -5 -24 -11 -11 -48 -4
-48 9 0 5 -10 9 -22 9 -23 0 -23 0 2 15 14 8 36 19 50 26 14 6 33 15 43 20 69
35 142 69 207 94 36 14 79 32 95 40 17 7 64 25 105 40 41 15 93 36 116 46 23
10 50 19 60 19 10 0 41 8 69 19 27 10 82 28 120 39 39 12 106 32 150 47 44 14
89 25 100 25 11 0 49 9 83 20 35 11 78 20 95 20 18 1 57 9 87 20 30 11 73 19
94 20 22 0 72 9 110 19 39 11 123 22 186 26 63 3 146 13 184 22 44 10 96 14
142 11 40 -3 71 -2 69 2 -2 4 48 8 113 9 64 1 119 4 121 7 3 2 201 3 440 2
391 -3 439 -5 470 -21z m124 -4 c-13 -2 -33 -2 -45 0 -13 2 -3 4 22 4 25 0 35
-2 23 -4z m224 -39 c-3 -3 -12 -4 -19 -1 -8 3 -5 6 6 6 11 1 17 -2 13 -5z
m316 -81 c-7 -2 -19 -2 -25 0 -7 3 -2 5 12 5 14 0 19 -2 13 -5z m542 -241 c-3
-3 -11 0 -18 7 -9 10 -8 11 6 5 10 -3 15 -9 12 -12z m170 -110 c-3 -3 -11 0
-18 7 -9 10 -8 11 6 5 10 -3 15 -9 12 -12z m-4685 -142 c-13 -8 -12 -10 3 -10
9 0 17 -4 17 -10 0 -14 -13 -13 -28 2 -17 17 -15 28 6 28 14 0 15 -2 2 -10z
m66 -28 c-17 -16 -18 -16 -5 5 7 12 15 20 18 17 3 -2 -3 -12 -13 -22z m-301
-112 c3 -5 1 -10 -4 -10 -6 0 -11 5 -11 10 0 6 2 10 4 10 3 0 8 -4 11 -10z
m-175 -44 c0 -2 -8 -10 -17 -17 -16 -13 -17 -12 -4 4 13 16 21 21 21 13z
m-430 -530 c0 -2 -8 -10 -17 -17 -16 -13 -17 -12 -4 4 13 16 21 21 21 13z
m-85 -86 c-3 -5 -11 -10 -16 -10 -6 0 -7 5 -4 10 3 6 11 10 16 10 6 0 7 -4 4
-10z m-55 -55 c-18 -19 -36 -33 -38 -30 -6 6 51 65 62 65 6 0 -5 -16 -24 -35z
m-90 -89 c0 -2 -8 -10 -17 -17 -16 -13 -17 -12 -4 4 13 16 21 21 21 13z m-40
-40 c0 -2 -8 -10 -17 -17 -16 -13 -17 -12 -4 4 13 16 21 21 21 13z m6737 -298
c-3 -7 -5 -2 -5 12 0 14 2 19 5 13 2 -7 2 -19 0 -25z m-5097 -138 c0 -5 -5
-10 -11 -10 -5 0 -7 5 -4 10 3 6 8 10 11 10 2 0 4 -4 4 -10z m5137 -112 c-3
-7 -5 -2 -5 12 0 14 2 19 5 13 2 -7 2 -19 0 -25z m10 -180 c-2 -13 -4 -5 -4
17 -1 22 1 32 4 23 2 -10 2 -28 0 -40z m-5697 -18 c-6 -11 -13 -20 -16 -20 -2
0 0 9 6 20 6 11 13 20 16 20 2 0 0 -9 -6 -20z m5697 -252 c-3 -7 -5 -2 -5 12
0 14 2 19 5 13 2 -7 2 -19 0 -25z m-5854 -3 c-3 -9 -8 -14 -10 -11 -3 3 -2 9
2 15 9 16 15 13 8 -4z m233 -470 c-4 -18 -13 -38 -21 -45 -8 -7 -15 -27 -15
-45 0 -18 -9 -43 -20 -56 -22 -28 -27 -13 -5 17 8 10 15 29 15 42 0 12 9 40
20 62 11 22 21 52 21 67 1 19 3 22 6 10 3 -11 2 -34 -1 -52z m-539 -287 c-3
-8 -6 -5 -6 6 -1 11 2 17 5 13 3 -3 4 -12 1 -19z m-10 -50 c-3 -8 -6 -5 -6 6
-1 11 2 17 5 13 3 -3 4 -12 1 -19z m180 -374 c-3 -3 -12 -4 -19 -1 -8 3 -5 6
6 6 11 1 17 -2 13 -5z m-326 -192 c-8 -3 -26 -17 -40 -31 -26 -26 -42 -38
-111 -85 -43 -29 -310 -293 -365 -361 -22 -28 -54 -69 -69 -93 -16 -24 -35
-46 -41 -50 -13 -7 -34 -43 -60 -102 -9 -19 -22 -47 -30 -62 -29 -51 4 -73 92
-62 26 4 60 13 75 20 15 8 38 14 53 14 14 0 25 5 25 11 0 5 11 -3 24 -18 28
-33 25 -45 -4 -18 -19 17 -25 18 -63 6 -120 -35 -211 -36 -222 -1 -6 19 32
121 63 169 9 14 35 49 57 78 22 28 52 69 68 90 31 42 289 305 351 358 23 19
70 56 106 84 36 27 64 53 63 59 -1 6 7 7 20 4 14 -4 17 -7 8 -10z m5249 -146
c0 -2 -7 -7 -16 -10 -8 -3 -12 -2 -9 4 6 10 25 14 25 6z m-5260 -59 c0 -1 -33
-34 -72 -72 -42 -41 -54 -49 -28 -21 59 64 100 103 100 93z m-150 -151 c0 -2
-8 -10 -17 -17 -16 -13 -17 -12 -4 4 13 16 21 21 21 13z m-40 -40 c0 -2 -8
-10 -17 -17 -16 -13 -17 -12 -4 4 13 16 21 21 21 13z m4460 -376 c-8 -5 -19
-10 -25 -10 -5 0 -3 5 5 10 8 5 20 10 25 10 6 0 3 -5 -5 -10z m-4273 -116 c-3
-19 -15 -46 -26 -61 -12 -14 -21 -35 -21 -45 0 -11 -9 -31 -20 -45 -11 -14
-20 -37 -20 -51 0 -14 -7 -30 -16 -36 -8 -6 -20 -32 -25 -56 -6 -25 -16 -52
-23 -60 -8 -8 -17 -29 -21 -47 -3 -17 -13 -37 -20 -43 -8 -7 -17 -27 -21 -46
-3 -18 -12 -38 -19 -44 -8 -6 -17 -25 -21 -42 -3 -17 -15 -45 -25 -62 -10 -17
-19 -41 -19 -53 0 -13 -8 -31 -19 -42 -10 -10 -21 -34 -25 -54 -4 -19 -13 -38
-21 -41 -9 -3 -15 -18 -15 -36 0 -16 -8 -38 -19 -49 -10 -10 -21 -36 -25 -57
-4 -21 -16 -49 -27 -62 -10 -14 -19 -35 -19 -48 0 -14 -9 -32 -20 -41 -11 -10
-20 -29 -20 -43 0 -26 -16 -50 -34 -50 -5 0 -2 8 7 18 10 10 17 28 17 39 0 11
9 32 20 46 11 14 20 33 20 42 0 9 11 37 25 63 14 26 25 54 25 63 0 9 6 22 14
28 8 6 19 31 25 55 6 24 17 49 26 56 8 7 15 23 15 36 0 12 6 29 14 37 8 7 20
34 27 58 7 24 18 51 26 60 7 8 16 30 19 47 4 17 12 37 20 43 7 6 16 26 20 45
3 18 12 38 20 45 8 6 14 18 14 27 0 8 12 40 26 71 15 31 34 74 44 96 9 22 26
60 37 85 39 88 63 156 63 178 0 15 4 21 11 16 7 -4 9 -21 6 -40z m96 39 c-7
-2 -21 -2 -30 0 -10 3 -4 5 12 5 17 0 24 -2 18 -5z m124 -115 c-3 -8 -6 -5 -6
6 -1 11 2 17 5 13 3 -3 4 -12 1 -19z m-40 -100 c-3 -8 -6 -5 -6 6 -1 11 2 17
5 13 3 -3 4 -12 1 -19z m3270 -54 c-3 -3 -12 -4 -19 -1 -8 3 -5 6 6 6 11 1 17
-2 13 -5z m-130 -40 c-3 -3 -12 -4 -19 -1 -8 3 -5 6 6 6 11 1 17 -2 13 -5z
m-40 -10 c-3 -3 -12 -4 -19 -1 -8 3 -5 6 6 6 11 1 17 -2 13 -5z m-254 -71 c-7
-2 -21 -2 -30 0 -10 3 -4 5 12 5 17 0 24 -2 18 -5z m-1608 -313 c3 -5 -1 -10
-10 -10 -9 0 -13 5 -10 10 3 6 8 10 10 10 2 0 7 -4 10 -10z m-1551 -234 c-3
-9 -10 -16 -15 -16 -5 0 -4 9 3 20 14 22 21 20 12 -4z m3682 -68 l29 -33 -32
29 c-31 28 -38 36 -30 36 2 0 16 -15 33 -32z m114 -113 c19 -19 32 -35 29 -35
-3 0 -20 16 -39 35 -19 19 -32 35 -29 35 3 0 20 -16 39 -35z m-3913 -87 c-3
-7 -5 -2 -5 12 0 14 2 19 5 13 2 -7 2 -19 0 -25z m-315 -131 c-11 -17 -23 -45
-26 -61 -4 -16 -16 -41 -27 -54 -10 -14 -19 -35 -19 -47 0 -12 -9 -30 -20 -40
-11 -10 -20 -30 -20 -45 0 -15 -9 -35 -20 -45 -12 -11 -20 -31 -20 -50 0 -18
-9 -44 -20 -58 -11 -14 -20 -37 -20 -51 0 -14 -9 -35 -19 -45 -10 -10 -22 -37
-26 -59 -7 -41 -45 -92 -45 -60 0 9 7 21 15 28 8 7 17 27 21 46 3 18 12 38 20
45 7 6 17 27 20 47 4 20 15 50 26 67 10 16 18 40 18 51 0 12 9 33 20 47 11 14
20 33 20 44 0 10 9 29 20 43 11 14 20 30 20 36 0 12 50 128 76 176 8 14 15 34
15 45 1 13 3 12 6 -5 2 -12 -4 -37 -15 -55z m4479 -44 c13 -16 12 -17 -3 -4
-10 7 -18 15 -18 17 0 8 8 3 21 -13z m-4324 -185 c-3 -8 -6 -5 -6 6 -1 11 2
17 5 13 3 -3 4 -12 1 -19z m-453 -479 c-23 -25 -30 -16 -10 13 9 12 17 32 17
43 1 12 4 9 6 -8 3 -18 -2 -36 -13 -48z m-40 -130 c-23 -25 -30 -16 -10 13 9
12 17 38 18 58 1 31 2 31 5 -9 3 -31 -1 -48 -13 -62z m-10 -259 c8 -8 21 -31
30 -50 25 -54 38 -72 81 -117 22 -23 54 -58 70 -79 72 -90 123 -142 204 -208
47 -39 96 -81 108 -92 50 -52 259 -202 309 -223 12 -5 24 -17 27 -25 4 -9 16
-16 27 -16 11 0 29 -9 40 -20 11 -11 32 -22 47 -26 16 -4 35 -12 43 -19 8 -7
33 -16 55 -20 22 -3 48 -14 57 -22 13 -11 41 -16 108 -16 65 0 87 -3 74 -10
-24 -14 -170 -2 -197 16 -12 8 -38 18 -57 22 -19 4 -57 20 -85 36 -27 16 -64
36 -81 44 -17 7 -36 21 -44 29 -7 9 -17 16 -23 16 -23 0 -215 143 -389 291
-112 95 -172 155 -258 259 -25 30 -52 61 -60 70 -22 23 -51 68 -82 128 -28 55
-36 112 -28 212 3 38 5 21 7 -55 3 -74 8 -114 17 -125z m5880 -136 c3 -8 2
-12 -4 -9 -6 3 -10 10 -10 16 0 14 7 11 14 -7z m-4177 -26 c-3 -8 -6 -5 -6 6
-1 11 2 17 5 13 3 -3 4 -12 1 -19z m-30 -150 c-3 -8 -6 -5 -6 6 -1 11 2 17 5
13 3 -3 4 -12 1 -19z m-10 -110 c-3 -8 -6 -5 -6 6 -1 11 2 17 5 13 3 -3 4 -12
1 -19z m-30 -440 c-3 -8 -6 -5 -6 6 -1 11 2 17 5 13 3 -3 4 -12 1 -19z m-317
-58 c0 -5 -2 -10 -4 -10 -3 0 -8 5 -11 10 -3 6 -1 10 4 10 6 0 11 -4 11 -10z
m45 0 c8 -13 -5 -13 -25 0 -13 8 -13 10 2 10 9 0 20 -4 23 -10z m5240 -18 c-3
-3 -11 0 -18 7 -9 10 -8 11 6 5 10 -3 15 -9 12 -12z m-1230 -952 c10 -11 16
-20 13 -20 -3 0 -13 9 -23 20 -10 11 -16 20 -13 20 3 0 13 -9 23 -20z m96 -97
c13 -16 12 -17 -3 -4 -10 7 -18 15 -18 17 0 8 8 3 21 -13z m1762 -110 c-7 -2
-19 -2 -25 0 -7 3 -2 5 12 5 14 0 19 -2 13 -5z m-426 -109 c-3 -3 -12 -4 -19
-1 -8 3 -5 6 6 6 11 1 17 -2 13 -5z m-324 -41 c-7 -2 -19 -2 -25 0 -7 3 -2 5
12 5 14 0 19 -2 13 -5z"/>
<path d="M9297 14333 c-3 -5 16 -7 41 -5 73 5 82 10 20 11 -31 0 -59 -2 -61
-6z"/>
<path d="M7320 13764 c0 -8 5 -12 10 -9 6 3 10 10 10 16 0 5 -4 9 -10 9 -5 0
-10 -7 -10 -16z"/>
<path d="M10040 13621 c0 -5 -21 -9 -46 -9 -25 0 -68 -6 -96 -12 -39 -10 -52
-10 -58 -1 -5 9 -20 10 -46 5 -32 -6 -35 -8 -19 -15 12 -5 4 -6 -21 -2 -26 3
-44 1 -48 -6 -4 -6 -18 -11 -32 -11 -14 0 -35 -5 -47 -11 -12 -7 -22 -8 -24
-2 -5 15 -129 -10 -152 -31 -12 -11 -21 -15 -21 -9 0 17 -96 -7 -120 -30 -12
-11 -25 -16 -29 -10 -3 5 -26 4 -56 -3 -34 -8 -42 -13 -25 -14 14 -1 -4 -7
-40 -14 -67 -13 -125 -38 -113 -49 3 -4 1 -7 -5 -7 -5 0 -19 -3 -29 -6 -15 -5
-16 -4 -3 6 12 10 11 11 -10 6 -14 -3 -29 -6 -35 -6 -5 0 -3 -5 5 -10 12 -8
11 -10 -7 -10 -12 0 -24 -6 -26 -12 -3 -8 -6 -9 -6 -2 -1 13 -51 6 -51 -6 0
-5 -17 -14 -37 -21 -21 -7 -43 -19 -49 -27 -6 -8 -15 -12 -21 -9 -5 3 -27 -2
-49 -13 -21 -10 -55 -26 -74 -35 -67 -31 -110 -55 -110 -63 0 -4 -10 -9 -22
-9 -13 -1 -27 -8 -33 -16 -5 -8 -27 -20 -47 -27 -25 -9 -34 -17 -25 -22 8 -5
7 -8 -5 -8 -10 0 -18 -6 -18 -12 0 -10 -2 -10 -9 0 -6 10 -15 6 -39 -17 -18
-16 -32 -25 -32 -19 0 12 -53 -25 -96 -69 -21 -20 -31 -26 -28 -16 4 13 0 11
-12 -4 -9 -13 -22 -23 -28 -23 -6 0 -26 -17 -45 -37 -18 -21 -28 -30 -21 -20
11 15 10 17 -4 11 -9 -3 -16 -9 -16 -13 0 -4 -11 -13 -25 -19 -14 -6 -24 -17
-23 -24 2 -7 -4 -12 -13 -10 -16 2 -47 -25 -41 -37 1 -3 -1 -6 -5 -6 -21 -1
-52 -27 -47 -39 5 -12 -17 -28 -41 -30 -5 -1 -10 -6 -10 -13 0 -12 -13 -28
-23 -28 -18 -1 -52 -27 -49 -38 1 -6 -9 -13 -22 -15 -15 -2 -20 -7 -13 -11 8
-5 0 -18 -23 -41 -19 -19 -35 -28 -35 -21 0 9 -4 8 -15 -3 -8 -8 -15 -21 -15
-29 0 -8 7 -17 15 -21 8 -3 15 -1 15 4 0 6 8 10 18 10 13 0 14 -2 4 -9 -9 -5
5 -10 37 -14 28 -3 59 -11 69 -17 14 -8 11 -9 -13 -5 -28 4 -28 4 4 -7 31 -11
36 -10 53 12 14 18 29 24 56 24 90 -1 140 -7 163 -20 28 -16 8 -19 -24 -3 -21
10 -21 10 -3 -5 11 -9 31 -16 45 -16 14 0 40 -9 56 -20 33 -22 50 -26 39 -9
-3 6 6 3 22 -7 38 -23 43 -29 22 -21 -28 10 -22 3 29 -33 27 -20 44 -27 41
-18 -4 8 19 -9 50 -39 32 -30 70 -64 86 -76 28 -19 29 -20 22 -2 -7 18 -6 18
14 0 22 -20 27 -30 8 -19 -7 5 -8 3 -4 -5 5 -7 14 -10 22 -7 8 3 13 2 11 -2
-1 -4 65 -73 146 -154 81 -81 147 -155 147 -165 0 -13 2 -15 9 -5 6 10 10 10
21 -3 9 -11 9 -15 1 -15 -7 0 0 -18 16 -39 15 -22 31 -37 35 -35 4 3 5 -3 1
-12 -4 -10 -2 -15 3 -11 6 3 16 -14 22 -39 7 -24 17 -43 23 -42 6 2 12 -14 13
-35 2 -22 8 -42 13 -45 14 -10 35 -52 26 -52 -4 0 -6 -24 -4 -52 3 -43 6 -48
12 -28 5 19 7 13 7 -25 0 -41 -2 -46 -9 -25 -6 19 -8 12 -5 -27 2 -37 -2 -61
-14 -81 -10 -16 -21 -47 -25 -70 -4 -23 -10 -44 -15 -47 -4 -3 -14 -28 -20
-56 -7 -29 -19 -64 -26 -78 -8 -14 -17 -43 -20 -63 -4 -22 -11 -35 -17 -31 -6
4 -8 -2 -5 -15 4 -12 2 -20 -3 -17 -4 3 -11 -6 -15 -21 -4 -15 -13 -39 -20
-53 -8 -14 -17 -41 -20 -58 -3 -18 -11 -33 -16 -33 -6 0 -8 -9 -5 -20 3 -11 1
-18 -4 -14 -5 3 -9 -3 -9 -13 0 -10 -9 -35 -20 -55 -11 -20 -22 -49 -24 -64
-3 -15 -9 -30 -15 -33 -9 -6 -36 -90 -33 -104 2 -5 -2 -6 -8 -2 -5 3 -15 -13
-22 -39 -7 -26 -15 -46 -19 -46 -3 0 -12 -20 -19 -45 -7 -25 -16 -45 -20 -45
-8 0 -25 -68 -21 -85 2 -5 -1 -7 -4 -3 -4 4 -18 -14 -31 -40 -30 -61 -46 -104
-36 -99 4 2 15 -4 25 -15 20 -21 0 -26 -24 -6 -10 10 -10 9 1 -3 8 -9 31 -21
50 -28 32 -10 33 -9 16 4 -11 8 -15 15 -9 15 5 0 21 -9 34 -21 33 -29 79 -52
79 -39 0 14 27 12 33 -2 4 -10 8 -10 15 1 5 7 11 9 13 4 3 -6 17 -6 38 -1 27
7 31 12 20 19 -9 6 -2 7 20 2 23 -4 32 -3 28 4 -4 6 2 13 13 16 11 3 20 1 20
-5 0 -5 7 -2 16 6 8 9 21 16 29 16 7 0 15 3 17 8 2 4 26 19 53 33 96 48 250
132 265 143 8 7 26 18 40 24 14 7 42 22 62 35 20 12 65 39 100 60 35 21 88 56
118 77 30 22 60 40 67 40 6 0 13 4 15 8 3 8 53 44 239 172 60 41 237 173 284
212 11 9 58 47 105 85 110 87 497 474 580 580 98 125 144 186 150 197 3 6 19
31 35 55 46 67 68 107 122 216 67 137 76 160 112 320 50 216 7 509 -98 681
-16 27 -44 73 -61 102 -17 29 -38 61 -48 70 -9 10 -40 43 -67 73 -110 118
-248 225 -346 270 -20 9 -40 22 -43 28 -4 6 -16 11 -27 11 -11 0 -37 9 -59 20
-22 11 -47 20 -57 20 -10 0 -42 11 -71 25 -36 16 -74 25 -118 27 -36 1 -68 6
-70 10 -7 11 -164 10 -164 -1z m128 -8 c-21 -2 -57 -2 -80 0 -24 2 -7 4 37 4
44 0 63 -2 43 -4z m-650 -80 c-10 -2 -26 -2 -35 0 -10 3 -2 5 17 5 19 0 27 -2
18 -5z m-115 -30 c-7 -2 -19 -2 -25 0 -7 3 -2 5 12 5 14 0 19 -2 13 -5z m-46
-9 c-3 -3 -12 -4 -19 -1 -8 3 -5 6 6 6 11 1 17 -2 13 -5z m-230 -70 c-3 -3
-12 -4 -19 -1 -8 3 -5 6 6 6 11 1 17 -2 13 -5z m-210 -80 c-3 -3 -12 -4 -19
-1 -8 3 -5 6 6 6 11 1 17 -2 13 -5z m-267 -114 c-8 -5 -19 -10 -25 -10 -5 0
-3 5 5 10 8 5 20 10 25 10 6 0 3 -5 -5 -10z m-697 -717 c-7 -2 -21 -2 -30 0
-10 3 -4 5 12 5 17 0 24 -2 18 -5z m332 -143 c3 -5 2 -10 -4 -10 -5 0 -13 5
-16 10 -3 6 -2 10 4 10 5 0 13 -4 16 -10z m155 -114 c22 -27 -5 -17 -31 10
-21 24 -22 26 -3 16 11 -6 26 -18 34 -26z m77 -2158 c-3 -8 -6 -5 -6 6 -1 11
2 17 5 13 3 -3 4 -12 1 -19z"/>
<path d="M12266 13605 c4 -8 11 -15 16 -15 6 0 5 6 -2 15 -7 8 -14 15 -16 15
-2 0 -1 -7 2 -15z"/>
<path d="M10419 13590 c13 -12 38 -20 58 -20 20 0 46 -9 60 -20 14 -11 36 -20
49 -20 14 0 32 -9 41 -20 10 -11 27 -20 39 -20 11 0 34 -11 50 -25 16 -13 36
-31 46 -39 9 -8 26 -17 39 -21 13 -4 43 -26 66 -49 125 -118 183 -177 183
-185 0 -6 8 -16 18 -23 22 -17 57 -67 66 -94 4 -12 15 -29 26 -39 11 -10 20
-24 20 -30 0 -7 8 -23 19 -36 10 -13 21 -40 25 -60 4 -21 13 -42 20 -48 7 -6
17 -39 20 -73 4 -33 15 -72 23 -85 23 -35 24 -350 1 -385 -9 -13 -19 -53 -23
-88 -4 -36 -16 -81 -26 -100 -11 -19 -19 -43 -19 -53 0 -10 -9 -30 -20 -44
-11 -14 -20 -33 -20 -41 0 -9 -10 -32 -23 -51 -41 -65 -47 -76 -62 -107 -7
-17 -21 -36 -29 -44 -9 -7 -16 -18 -16 -25 0 -6 -9 -20 -20 -30 -11 -10 -20
-22 -20 -28 0 -5 -17 -30 -38 -56 -21 -25 -47 -59 -57 -75 -11 -16 -24 -35
-30 -43 -20 -29 -173 -191 -306 -323 -246 -245 -326 -315 -564 -490 -22 -16
-47 -36 -55 -43 -14 -12 -110 -78 -149 -102 -8 -5 -22 -18 -29 -27 -7 -10 -18
-18 -25 -18 -14 0 -89 -51 -100 -67 -4 -7 -14 -13 -22 -13 -7 0 -27 -11 -43
-25 -17 -14 -34 -25 -39 -25 -5 0 -16 -9 -26 -20 -9 -11 -23 -20 -30 -20 -8 0
-22 -9 -32 -20 -10 -11 -26 -20 -36 -20 -10 0 -23 -9 -29 -20 -6 -11 -19 -20
-30 -20 -10 0 -25 -7 -34 -15 -8 -9 -40 -29 -71 -45 -31 -16 -68 -39 -82 -50
-14 -11 -32 -20 -40 -20 -8 0 -26 -9 -40 -20 -14 -11 -33 -20 -43 -20 -9 0
-25 -9 -34 -19 -10 -11 -29 -22 -43 -26 -34 -8 -94 -55 -87 -67 3 -5 13 -7 21
-4 8 3 12 2 9 -3 -18 -28 97 -15 118 14 7 9 19 16 27 15 29 -5 50 0 44 10 -3
6 1 7 10 4 10 -4 24 2 36 14 12 13 26 19 36 15 11 -4 14 -3 9 5 -5 8 -2 10 8
6 9 -4 18 0 22 9 3 9 12 18 20 21 10 4 12 2 8 -6 -4 -6 7 -3 25 8 17 10 31 22
31 27 0 5 7 7 15 4 8 -4 17 -1 21 5 5 7 2 8 -6 3 -9 -5 -11 -4 -6 3 4 7 16 12
27 12 12 0 17 4 14 11 -4 6 -1 10 6 8 29 -3 50 1 44 11 -3 6 3 10 15 10 12 0
18 5 15 10 -4 6 7 10 25 10 17 0 29 4 26 9 -8 12 20 34 33 27 5 -4 16 2 23 11
17 23 64 51 52 31 -5 -8 1 -7 16 4 14 9 24 21 23 26 -1 5 3 9 10 9 31 -1 48 4
42 12 -7 12 13 25 39 26 10 1 24 9 30 17 6 8 21 18 32 22 12 4 24 16 27 27 3
12 10 18 17 14 13 -8 42 14 34 26 -3 5 9 9 26 9 18 0 29 4 25 10 -3 6 0 10 8
10 21 0 68 40 61 51 -3 6 0 10 7 8 26 -3 40 1 35 10 -8 12 21 34 34 26 5 -3
13 1 16 9 3 9 13 16 21 16 8 0 11 5 8 10 -4 6 -3 10 2 9 21 -4 44 2 39 10 -3
4 4 17 16 27 12 11 18 13 14 6 -12 -20 26 1 45 25 13 17 13 17 -6 3 -18 -14
-19 -14 -7 2 8 9 19 15 26 12 6 -2 34 17 60 43 27 27 46 42 41 35 -6 -11 -3
-12 13 -3 12 6 24 16 28 23 5 7 3 8 -6 3 -9 -5 -11 -4 -6 4 4 6 12 8 18 5 6
-4 31 15 56 42 25 27 42 43 38 37 -5 -9 -2 -11 8 -7 9 3 14 10 11 14 -2 4 5
16 17 26 13 12 18 13 13 4 -8 -12 -5 -12 15 1 14 9 25 23 25 30 0 8 5 14 12
14 15 0 28 13 28 28 0 7 5 12 10 12 19 0 35 16 29 27 -5 7 -2 8 5 3 15 -9 386
361 386 385 0 8 6 15 14 15 7 0 21 11 30 25 13 20 13 23 1 16 -8 -5 0 7 19 27
19 20 38 34 43 31 4 -3 8 2 8 10 0 8 9 24 21 35 12 11 18 24 15 30 -4 5 -1 13
5 17 8 5 9 3 4 -7 -5 -8 -4 -11 1 -6 5 5 9 16 9 25 0 9 6 17 14 17 8 0 15 8
17 19 1 10 12 24 23 32 13 9 18 21 14 32 -3 9 -2 14 2 10 11 -11 40 33 37 55
-2 9 2 16 8 15 6 -2 19 8 28 22 9 13 11 21 5 16 -22 -13 -14 2 17 34 21 21 29
38 25 50 -3 11 0 22 8 27 8 4 20 19 27 32 9 18 9 22 0 16 -9 -6 -9 -2 -1 14 7
11 17 21 23 21 5 0 8 9 5 20 -3 11 -1 18 4 14 9 -5 13 14 10 53 -1 11 3 24 10
29 8 5 9 3 4 -6 -6 -9 -4 -11 4 -5 9 5 11 19 7 39 -4 22 -3 27 4 16 7 -10 10
10 10 66 0 63 3 83 15 88 12 4 15 26 15 110 0 58 -4 108 -10 111 -6 4 -7 -1
-4 -12 5 -15 4 -16 -5 -3 -6 8 -11 55 -11 103 0 50 -4 86 -9 83 -5 -4 -7 4 -3
16 3 14 1 19 -6 14 -11 -6 -28 31 -19 41 9 9 -15 63 -28 63 -7 0 -16 7 -19 16
-3 8 -2 13 3 10 5 -4 7 3 4 14 -3 11 -9 18 -13 15 -4 -3 -7 3 -6 12 0 10 -6
18 -14 18 -8 1 -14 7 -12 14 1 7 -11 28 -28 47 -16 19 -30 42 -30 50 0 8 -5
12 -11 9 -6 -4 -9 0 -7 11 2 11 -2 18 -9 17 -7 -2 -12 3 -10 10 1 6 -4 11 -11
9 -8 -1 -11 2 -8 7 3 5 -8 19 -24 32 -28 23 -43 48 -18 33 7 -4 8 -3 4 5 -4 6
-11 9 -16 6 -8 -5 -25 13 -25 28 0 4 -4 7 -9 6 -4 -1 -27 18 -51 41 -24 23
-48 39 -53 36 -6 -3 -14 -1 -18 5 -5 8 -3 9 7 4 8 -5 5 1 -5 13 -20 23 -32 29
-20 11 4 -8 0 -8 -15 0 -11 6 -25 20 -30 30 -6 10 -18 21 -26 25 -9 3 -13 2
-10 -4 3 -6 -1 -7 -9 -4 -9 3 -16 12 -16 20 0 8 -3 14 -7 15 -33 3 -59 11 -61
19 -2 6 -13 15 -24 21 -12 7 -18 7 -14 1 4 -6 -2 -8 -14 -5 -11 3 -17 10 -13
16 3 5 1 7 -5 4 -5 -4 -18 -4 -27 -1 -13 5 -14 8 -3 15 10 7 8 9 -7 9 -79 3
-120 14 -110 30 3 4 -8 10 -25 12 -16 2 -27 1 -24 -4 6 -10 -58 2 -70 13 -6 5
-46 9 -90 9 l-81 -1 24 -19z m-429 -3074 c0 -2 -7 -7 -16 -10 -8 -3 -12 -2 -9
4 6 10 25 14 25 6z"/>
<path d="M12306 13565 c4 -8 11 -15 16 -15 6 0 5 6 -2 15 -7 8 -14 15 -16 15
-2 0 -1 -7 2 -15z"/>
<path d="M12420 13435 c7 -9 15 -13 17 -11 7 7 -7 26 -19 26 -6 0 -6 -6 2 -15z"/>
<path d="M11376 13087 c3 -10 9 -15 12 -12 3 3 0 11 -7 18 -10 9 -11 8 -5 -6z"/>
<path d="M7870 12729 c0 -5 5 -7 10 -4 6 3 10 8 10 11 0 2 -4 4 -10 4 -5 0
-10 -5 -10 -11z"/>
<path d="M7830 12689 c0 -5 5 -7 10 -4 6 3 10 8 10 11 0 2 -4 4 -10 4 -5 0
-10 -5 -10 -11z"/>
<path d="M7203 11953 c-3 -10 -8 -22 -10 -28 -3 -5 3 -1 11 9 16 20 21 36 11
36 -3 0 -8 -8 -12 -17z"/>
<path d="M7050 11690 c-6 -11 -7 -20 -2 -20 6 0 12 9 15 20 3 11 3 20 1 20 -2
0 -8 -9 -14 -20z"/>
<path d="M11139 11523 c-13 -16 -12 -17 4 -4 9 7 17 15 17 17 0 8 -8 3 -21
-13z"/>
<path d="M5950 11106 c0 -2 8 -10 18 -17 15 -13 16 -12 3 4 -13 16 -21 21 -21
13z"/>
<path d="M6180 10796 c0 -2 8 -10 18 -17 15 -13 16 -12 3 4 -13 16 -21 21 -21
13z"/>
<path d="M12350 10659 c0 -5 5 -7 10 -4 6 3 10 8 10 11 0 2 -4 4 -10 4 -5 0
-10 -5 -10 -11z"/>
<path d="M12310 10619 c0 -5 5 -7 10 -4 6 3 10 8 10 11 0 2 -4 4 -10 4 -5 0
-10 -5 -10 -11z"/>
<path d="M12280 10590 c-8 -5 -12 -12 -9 -15 4 -3 12 1 19 10 14 17 11 19 -10
5z"/>
<path d="M6295 9794 c-9 -15 -12 -23 -6 -20 11 7 35 46 28 46 -3 0 -12 -12
-22 -26z"/>
<path d="M6773 9235 c-3 -9 -3 -18 -1 -21 3 -3 8 4 11 16 6 23 -1 27 -10 5z"/>
<path d="M6457 8511 c-4 -17 -3 -21 5 -13 5 5 8 16 6 23 -3 8 -7 3 -11 -10z"/>
<path d="M11490 7050 c0 -5 5 -10 11 -10 5 0 7 5 4 10 -3 6 -8 10 -11 10 -2 0
-4 -4 -4 -10z"/>
<path d="M10701 5733 c7 -12 15 -20 18 -17 3 2 -3 12 -13 22 -17 16 -18 16 -5
-5z"/>
<path d="M11605 4870 c27 -12 43 -12 25 0 -8 5 -22 9 -30 9 -10 0 -8 -3 5 -9z"/>
</g>
</svg>
